<svg width="240" height="240" viewBox="0 0 240 240" fill="none" xmlns="http://www.w3.org/2000/svg">
<path d="M67.859 94.9202L240 94.916L231.492 189.613C229.596 210.719 211.449 226.912 189.692 226.913L56 226.916L67.859 94.9202Z" fill="#007CCC"/>
<path d="M67.859 94.9202L240 94.916L231.492 189.613C229.596 210.719 211.449 226.912 189.692 226.913L56 226.916L67.859 94.9202Z" fill="url(#paint0_radial_4794_1111)"/>
<path d="M9.92171 53.2499C10.7249 43.9022 18.4116 36.7301 27.6267 36.7305L96 36.733L84.6589 168.73L0 168.727L9.92171 53.2499Z" fill="#35FAFF"/>
<path d="M80.8498 147.625C79.2759 151 74.9809 153.736 71.2567 153.736H12.7415C9.01733 153.736 7.27417 151 8.84809 147.625L28.397 105.702H100.399L80.8498 147.625Z" fill="url(#paint1_linear_4794_1111)"/>
<path d="M26.3672 100.19C19.3104 79.2555 30.5602 56.5646 51.4942 49.5078C72.4282 42.4511 95.1192 53.7009 102.176 74.6349C109.233 95.5689 97.9828 118.26 77.0488 125.317C56.1148 132.373 33.4239 121.124 26.3672 100.19Z" fill="white"/>
<path d="M91.4214 102.38L53.0474 115.316C51.0684 115.983 48.9147 114.942 48.2609 113.002L35.5793 75.3817C34.9255 73.4423 36.0095 71.3098 37.9884 70.6427L76.3625 57.707C78.3407 57.0402 80.4952 58.081 81.1489 60.0204L93.8301 97.6395C94.4839 99.5789 93.3994 101.712 91.4212 102.379L91.4214 102.38Z" fill="#4285F4"/>
<path opacity="0.2" d="M91.3209 102.082L52.9469 115.017C50.9679 115.684 48.8142 114.643 48.1604 112.704L48.2593 112.997C48.9131 114.937 51.067 115.978 53.046 115.311L91.42 102.376C93.3983 101.709 94.4829 99.5761 93.8292 97.6367L93.7298 97.3419C94.3836 99.2813 93.2992 101.415 91.3209 102.082Z" fill="#1A237E"/>
<g filter="url(#filter0_d_4794_1111)">
<path d="M68.1777 60.4677L68.2865 60.6888L68.2085 60.4573L76.3932 57.6982C77.1647 57.4397 77.9971 57.4298 78.7688 57.6701C79.5405 57.9105 80.2112 58.3884 80.6829 59.0341L89.1364 71.7319C89.4251 72.5812 89.5398 73.4804 89.474 74.3776C89.4081 75.2748 89.1629 76.1524 88.7525 76.9599C88.3421 77.7674 87.7747 78.4889 87.0827 79.0829C86.3907 79.6768 85.5879 80.1315 84.7205 80.4208C83.8549 80.7157 82.9407 80.8398 82.0304 80.7859C81.1201 80.7321 80.2316 80.5014 79.4161 80.1072C78.6006 79.7129 77.8742 79.1628 77.2786 78.4886C76.683 77.8143 76.23 77.0292 75.9456 76.1784L75.7986 75.9544L75.9141 76.189C76.2028 77.0384 76.3176 77.9375 76.2517 78.8347C76.1858 79.732 75.9406 80.6096 75.5303 81.4171C75.1199 82.2246 74.5524 82.9461 73.8604 83.54C73.1684 84.1339 72.3657 84.5886 71.4982 84.8779C68.0233 86.0493 64.2531 84.3462 62.8886 81.0747C63.7939 84.5296 61.8148 88.1429 58.3385 89.3148C57.4729 89.6097 56.5587 89.7338 55.6484 89.6799C54.738 89.6261 53.8496 89.3955 53.0341 89.0012C52.2186 88.6069 51.4922 88.0568 50.8965 87.3826C50.3572 86.7721 49.9348 86.0706 49.6486 85.3118C50.6896 88.8279 48.7015 92.5627 45.1559 93.7578C44.2904 94.0528 43.3761 94.177 42.4657 94.1233C41.5553 94.0695 40.6667 93.8389 39.8512 93.4446C39.0356 93.0504 38.3091 92.5003 37.7134 91.826C37.1178 91.1517 36.6647 90.3666 36.3803 89.5157L35.4224 74.2919C35.4068 73.4924 35.6511 72.7058 36.1198 72.0472C36.5885 71.3886 37.257 70.8924 38.0277 70.6311L68.1777 60.4677Z" fill="#7BAAF7"/>
</g>
<path d="M80.6834 59.0327C80.2117 58.387 79.5411 57.9091 78.7694 57.6687C77.9976 57.4284 77.1653 57.4383 76.3938 57.6969L68.209 60.4559L75.9461 76.177C76.2305 77.0278 76.6835 77.8129 77.2791 78.4872C77.8747 79.1614 78.6012 79.7115 79.4167 80.1058C80.2322 80.5001 81.1206 80.7307 82.0309 80.7846C82.9413 80.8384 83.8555 80.7143 84.7211 80.4194C85.5885 80.1301 86.3913 79.6754 87.0832 79.0815C87.7752 78.4875 88.3427 77.766 88.7531 76.9585C89.1635 76.151 89.4086 75.2734 89.4745 74.3762C89.5404 73.479 89.4256 72.5798 89.1369 71.7305L80.6834 59.0327ZM57.2067 64.1655L46.204 67.8744L49.5641 85.071C49.8485 85.9218 50.3015 86.7069 50.8971 87.3812C51.4927 88.0554 52.2191 88.6055 53.0346 88.9998C53.8501 89.3941 54.7386 89.6247 55.6489 89.6786C56.5592 89.7324 57.4735 89.6083 58.339 89.3134C61.9663 88.0907 63.9635 84.2099 62.7549 80.6245L57.2067 64.1655Z" fill="#3F51B5"/>
<path opacity="0.1" d="M89.1044 71.7407C89.3932 72.5901 89.5079 73.4893 89.442 74.3865C89.3762 75.2837 89.131 76.1613 88.7206 76.9688C88.3102 77.7763 87.7427 78.4978 87.0508 79.0917C86.3588 79.6857 85.556 80.1404 84.6886 80.4297C83.823 80.7246 82.9088 80.8487 81.9985 80.7948C81.0881 80.741 80.1997 80.5103 79.3842 80.1161C78.5687 79.7218 77.8422 79.1717 77.2466 78.4975C76.651 77.8232 76.198 77.0381 75.9136 76.1873L89.1044 71.7407ZM49.5314 85.0806C49.8201 85.9299 49.9348 86.8291 49.869 87.7263C49.8031 88.6235 49.5579 89.5012 49.1475 90.3087C48.7372 91.1162 48.1697 91.8376 47.4777 92.4316C46.7857 93.0255 45.9829 93.4802 45.1155 93.7695C44.2499 94.0645 43.3356 94.1887 42.4253 94.1349C41.5149 94.0812 40.6263 93.8506 39.8107 93.4563C38.9952 93.0621 38.2687 92.512 37.673 91.8377C37.0773 91.1634 36.6243 90.3782 36.3399 89.5273L49.5321 85.0803L49.5314 85.0806ZM62.7221 80.634C63.0109 81.4834 63.1256 82.3826 63.0598 83.2798C62.9939 84.177 62.7487 85.0546 62.3383 85.8621C61.9279 86.6696 61.3604 87.3911 60.6685 87.985C59.9765 88.579 59.1737 89.0337 58.3063 89.323C57.4407 89.6179 56.5265 89.742 55.6162 89.6881C54.7059 89.6343 53.8174 89.4036 53.0019 89.0094C52.1864 88.6151 51.46 88.065 50.8644 87.3908C50.2688 86.7165 49.8157 85.9314 49.5314 85.0806L62.7221 80.634ZM75.9136 76.1873C76.2024 77.0366 76.3171 77.9358 76.2513 78.833C76.1854 79.7302 75.9402 80.6079 75.5298 81.4154C75.1194 82.2229 74.5519 82.9443 73.86 83.5383C73.168 84.1322 72.3652 84.5869 71.4978 84.8762C70.6322 85.1712 69.7179 85.2954 68.8075 85.2416C67.8971 85.1879 67.0086 84.9573 66.193 84.563C65.3775 84.1688 64.6509 83.6187 64.0553 82.9444C63.4596 82.2701 63.0065 81.4849 62.7221 80.634L75.9136 76.1873Z" fill="#231F20"/>
<path d="M81.2309 93.045L82.0742 95.5465L85.6231 94.3502C85.8396 95.9328 84.8787 97.4615 82.94 98.115C80.787 98.8408 78.4409 97.6446 77.7296 95.5345C77.0183 93.4244 78.1618 91.0528 80.3147 90.327C81.283 90.0006 82.2619 90.0335 83.1614 90.4434L84.4284 87.9515C82.9336 87.2931 81.2254 87.1558 79.447 87.7552C75.8046 88.9831 73.8275 92.8735 75.0311 96.4442C76.235 100.016 80.1636 101.914 83.8067 100.686C87.6166 99.4021 89.2537 95.9278 88.0082 92.233C87.8537 91.7746 87.6627 91.3481 87.4424 90.9512L81.2309 93.045Z" fill="#EEEEEE"/>
<g clip-path="url(#clip0_4794_1111)">
<path d="M154.076 71.127C164.208 56.6468 184.16 53.122 198.641 63.2541C213.121 73.3863 216.646 93.3386 206.514 107.819C196.381 122.299 176.429 125.824 161.949 115.692C147.469 105.56 143.944 85.6073 154.076 71.127Z" fill="white"/>
<g clip-path="url(#clip1_4794_1111)">
<path d="M206.514 107.819C216.646 93.3386 213.121 73.3863 198.641 63.2541C184.16 53.1219 164.208 56.6468 154.076 71.127C144.919 84.2134 146.917 101.769 158.075 112.507L170.895 94.1853L164.238 89.5271L169.541 81.9483L176.198 86.6064L180.24 80.8301C184.838 74.259 191.292 73.3683 197.281 77.5588C200.149 79.5654 202.792 82.1776 202.792 82.1776L198.277 88.6299L194.971 86.3166C191.714 84.0377 189.284 85.348 187.831 87.4235L184.391 92.3395L191.663 97.4276L185.198 104.193L179.088 99.9184L166.268 118.24C180.179 125.043 197.357 120.905 206.514 107.819Z" fill="#1877F2"/>
<path d="M185.196 104.193L191.661 97.4272L184.39 92.339L187.83 87.423C189.28 85.3496 191.712 84.0372 194.969 86.3161L198.275 88.6294L202.79 82.1772C202.79 82.1772 200.148 79.5657 197.279 77.5584C191.29 73.3678 184.836 74.2585 180.238 80.8296L176.196 86.6059L169.539 81.9478L164.236 89.5267L170.893 94.1848L158.073 112.506C160.491 114.83 163.255 116.765 166.267 118.239L179.087 99.9179L185.196 104.193Z" fill="white"/>
</g>
</g>
<path d="M118.5 49.4063C118.5 36.1514 129.245 25.4062 142.5 25.4062C155.755 25.4062 166.5 36.1514 166.5 49.4063C166.5 62.6611 155.755 73.4063 142.5 73.4063C129.245 73.4063 118.5 62.6611 118.5 49.4063Z" fill="#34E0A1"/>
<path d="M155.471 45.3075L158.006 42.5497H152.386C149.474 40.5677 146.033 39.5078 142.51 39.5078C138.987 39.5078 135.546 40.5677 132.634 42.5497H127L129.535 45.3075C128.785 45.9956 128.177 46.8248 127.747 47.7478C127.318 48.6707 127.074 49.6694 127.03 50.6866C126.987 51.7038 127.144 52.7196 127.494 53.6759C127.843 54.6322 128.378 55.5103 129.066 56.2599C129.755 57.0095 130.585 57.6159 131.509 58.0445C132.432 58.4731 133.431 58.7154 134.449 58.7576C135.466 58.7999 136.482 58.6411 137.437 58.2906C138.393 57.94 139.271 57.4044 140.019 56.7145L142.503 59.4165L144.985 56.7163C146.415 58.0448 148.296 58.782 150.248 58.7793C154.526 58.7793 157.998 55.311 157.998 51.0327C157.999 49.9549 157.775 48.8888 157.34 47.9029C156.904 46.9169 156.268 46.0328 155.471 45.3075ZM134.755 56.2751C133.718 56.2751 132.704 55.9676 131.842 55.3916C130.98 54.8155 130.308 53.9968 129.911 53.0388C129.515 52.0809 129.411 51.0268 129.613 50.0099C129.815 48.993 130.315 48.0589 131.048 47.3257C131.781 46.5926 132.715 46.0933 133.732 45.891C134.749 45.6887 135.803 45.7925 136.761 46.1893C137.719 46.5861 138.538 47.258 139.114 48.1201C139.69 48.9822 139.997 49.9958 139.997 51.0327C139.997 51.7211 139.861 52.4028 139.598 53.0388C139.335 53.6749 138.948 54.2528 138.462 54.7396C137.975 55.2264 137.397 55.6126 136.761 55.876C136.125 56.1395 135.443 56.2751 134.755 56.2751ZM142.503 50.8817C142.503 47.4317 139.993 44.4716 136.684 43.2057C138.528 42.4376 140.505 42.0422 142.502 42.0422C144.5 42.0422 146.477 42.4376 148.321 43.2057C145.012 44.4721 142.503 47.4322 142.503 50.8817ZM150.248 56.2751C149.211 56.2751 148.197 55.9676 147.335 55.3916C146.473 54.8155 145.801 53.9968 145.405 53.0388C145.008 52.0809 144.904 51.0268 145.106 50.0099C145.308 48.993 145.808 48.0589 146.541 47.3257C147.274 46.5926 148.208 46.0933 149.225 45.891C150.242 45.6887 151.296 45.7925 152.254 46.1893C153.212 46.5861 154.031 47.258 154.607 48.1201C155.183 48.9822 155.49 49.9958 155.49 51.0327C155.49 52.423 154.938 53.7565 153.955 54.7396C152.972 55.7227 151.638 56.2751 150.248 56.2751ZM150.248 48.2846C149.704 48.2846 149.173 48.4458 148.721 48.7479C148.269 49.0499 147.917 49.4792 147.709 49.9814C147.501 50.4837 147.446 51.0363 147.552 51.5695C147.658 52.1026 147.92 52.5924 148.305 52.9767C148.689 53.3611 149.179 53.6228 149.712 53.7288C150.245 53.8348 150.798 53.7803 151.3 53.5722C151.802 53.3641 152.231 53.0118 152.533 52.5598C152.835 52.1077 152.996 51.5763 152.996 51.0327C152.996 50.6718 152.925 50.3144 152.787 49.9809C152.649 49.6475 152.447 49.3445 152.191 49.0894C151.936 48.8342 151.633 48.6318 151.3 48.4937C150.966 48.3556 150.609 48.2846 150.248 48.2846ZM137.503 51.0327C137.503 51.5763 137.342 52.1077 137.04 52.5598C136.738 53.0118 136.309 53.3641 135.807 53.5722C135.305 53.7803 134.752 53.8348 134.219 53.7288C133.686 53.6228 133.196 53.3611 132.811 52.9767C132.427 52.5924 132.165 52.1026 132.059 51.5695C131.953 51.0363 132.007 50.4837 132.215 49.9814C132.423 49.4792 132.776 49.0499 133.228 48.7479C133.68 48.4458 134.211 48.2846 134.755 48.2846C135.484 48.2846 136.183 48.5742 136.698 49.0895C137.213 49.6048 137.503 50.3038 137.503 51.0327Z" fill="black"/>
<circle cx="180.297" cy="89.3125" r="32" fill="url(#paint2_radial_4794_1111)" fill-opacity="0.6" style="mix-blend-mode:multiply"/>
<circle cx="64.2734" cy="87.4141" r="40" fill="url(#paint3_radial_4794_1111)" fill-opacity="0.6" style="mix-blend-mode:multiply"/>
<path d="M102 93.2656C102 80.0108 112.745 69.2656 126 69.2656C139.255 69.2656 150 80.0108 150 93.2656C150 106.52 139.255 117.266 126 117.266C112.745 117.266 102 106.52 102 93.2656Z" fill="#FF1A1A"/>
<g clip-path="url(#clip2_4794_1111)">
<path d="M121.868 96.7665L123.252 96.4469C123.281 96.4403 123.33 96.4292 123.388 96.4103C123.77 96.308 124.098 96.0616 124.301 95.7229C124.505 95.3843 124.569 94.9799 124.48 94.595L124.475 94.5706C124.429 94.3861 124.349 94.2119 124.239 94.0568C124.084 93.8605 123.892 93.6961 123.674 93.573C123.418 93.4271 123.149 93.3031 122.872 93.2024L121.354 92.6487C120.502 92.3325 119.651 92.0251 118.79 91.7244C118.233 91.5269 117.76 91.3527 117.35 91.2251C117.272 91.2035 117.195 91.1798 117.118 91.1541C116.622 91.0032 116.273 90.9399 115.978 90.9377C115.781 90.9304 115.585 90.966 115.403 91.042C115.214 91.124 115.043 91.245 114.903 91.3971C114.834 91.4758 114.768 91.558 114.707 91.6434C114.589 91.825 114.491 92.0193 114.416 92.2226C114.134 93.0538 113.994 93.9261 114 94.8036C114.006 95.5959 114.027 96.6134 114.464 97.3036C114.569 97.4811 114.711 97.6342 114.879 97.753C115.19 97.9671 115.503 97.996 115.831 98.0193C116.321 98.0537 116.793 97.9349 117.266 97.8251L121.864 96.7654L121.868 96.7665ZM137.311 89.4331C136.933 88.6415 136.425 87.9188 135.808 87.2948C135.728 87.2155 135.643 87.142 135.552 87.0751C135.469 87.0125 135.382 86.9544 135.292 86.9009C135.2 86.8504 135.105 86.8048 135.007 86.7644C134.815 86.6891 134.61 86.6551 134.404 86.6646C134.207 86.6757 134.015 86.7311 133.84 86.8232C133.577 86.9542 133.291 87.165 132.911 87.5167C132.858 87.5689 132.793 87.6277 132.733 87.6832C132.42 87.9772 132.071 88.3401 131.656 88.7617C131.015 89.4086 130.384 90.0589 129.756 90.7147L128.633 91.8775C128.428 92.0896 128.241 92.3187 128.075 92.5622C127.933 92.7682 127.832 93 127.778 93.2446C127.748 93.4325 127.753 93.6242 127.792 93.8105L127.797 93.8349C127.886 94.2194 128.121 94.5546 128.452 94.7699C128.783 94.9851 129.186 95.0636 129.574 94.9889C129.621 94.9823 129.667 94.9734 129.713 94.9623L135.697 93.5819C136.169 93.4732 136.647 93.3733 137.071 93.127C137.356 92.9639 137.626 92.8007 137.812 92.4723C137.91 92.2914 137.97 92.0918 137.987 91.8864C138.079 91.072 137.654 90.1476 137.311 89.4331ZM126.599 91.9441C127.032 91.4004 127.032 90.5904 127.07 89.9268C127.201 87.7131 127.338 85.4995 127.448 83.2847C127.489 82.4458 127.579 81.618 127.529 80.7725C127.488 80.0757 127.484 79.2745 127.042 78.702C126.264 77.6922 124.603 77.7754 123.47 77.933C123.12 77.9812 122.773 78.0464 122.43 78.1283C122.086 78.2104 121.743 78.3003 121.41 78.4079C120.322 78.763 118.793 79.4154 118.535 80.666C118.389 81.3728 118.736 82.0952 119.002 82.741C119.328 83.5221 119.772 84.2267 120.177 84.9624C121.247 86.9053 122.337 88.8372 123.423 90.7701C123.749 91.3471 124.101 92.0773 124.73 92.3769C124.772 92.3946 124.814 92.4102 124.857 92.4246C125.139 92.5311 125.447 92.5511 125.739 92.4834L125.791 92.4723C126.063 92.3979 126.307 92.2504 126.5 92.0473C126.535 92.014 126.567 91.9807 126.6 91.9441H126.599ZM126.079 97.8706C125.91 97.633 125.67 97.4549 125.393 97.3618C125.116 97.2688 124.817 97.2655 124.538 97.3524C124.473 97.3739 124.409 97.4003 124.347 97.4312C124.252 97.4798 124.16 97.5366 124.075 97.6009C123.83 97.7934 123.611 98.0168 123.424 98.2656C123.376 98.3266 123.332 98.4076 123.274 98.4609L122.311 99.7813C121.766 100.523 121.227 101.265 120.695 102.018C120.346 102.505 120.045 102.917 119.806 103.28C119.762 103.349 119.715 103.424 119.673 103.486C119.387 103.926 119.226 104.248 119.143 104.534C119.08 104.724 119.06 104.926 119.085 105.124C119.111 105.331 119.181 105.529 119.289 105.708C119.347 105.797 119.409 105.883 119.476 105.966C119.62 106.132 119.782 106.281 119.96 106.41C120.625 106.872 121.352 107.204 122.117 107.46C122.754 107.671 123.415 107.797 124.085 107.835C124.199 107.84 124.314 107.838 124.427 107.828C124.532 107.818 124.637 107.804 124.741 107.784C124.844 107.76 124.947 107.73 125.048 107.695C125.243 107.622 125.421 107.509 125.57 107.362C125.711 107.221 125.82 107.052 125.888 106.864C125.999 106.587 126.073 106.236 126.122 105.714C126.125 105.64 126.136 105.551 126.144 105.47C126.182 105.038 126.199 104.527 126.226 103.93C126.274 103.01 126.311 102.095 126.34 101.177L126.402 99.5439C126.416 99.1688 126.404 98.7516 126.299 98.3777C126.254 98.198 126.179 98.0269 126.079 97.8706ZM136.945 100.426C136.745 100.205 136.461 99.9866 136.011 99.7159C135.947 99.6792 135.87 99.6315 135.8 99.5894C135.427 99.3641 134.976 99.1289 134.45 98.8437C133.642 98.3999 132.834 97.9693 132.017 97.541L130.575 96.7776C130.5 96.7554 130.424 96.7021 130.353 96.6677C130.076 96.5264 129.781 96.4216 129.477 96.3559C129.372 96.3357 129.266 96.3246 129.159 96.3227C129.09 96.3223 129.021 96.3264 128.952 96.3349C128.664 96.3794 128.396 96.5137 128.189 96.7187C127.981 96.9238 127.844 97.189 127.796 97.4767C127.775 97.6597 127.782 97.845 127.817 98.0248C127.887 98.4087 128.058 98.7871 128.236 99.1189L129.006 100.56C129.435 101.373 129.869 102.18 130.313 102.986C130.6 103.511 130.839 103.96 131.063 104.333C131.105 104.403 131.153 104.478 131.189 104.544C131.462 104.991 131.68 105.273 131.901 105.476C132.048 105.617 132.225 105.725 132.419 105.79C132.613 105.855 132.819 105.877 133.022 105.853C133.128 105.84 133.233 105.822 133.336 105.798C133.549 105.741 133.755 105.66 133.949 105.557C134.534 105.229 135.074 104.827 135.553 104.358C136.129 103.793 136.639 103.176 137.034 102.47C137.09 102.37 137.137 102.267 137.177 102.159C137.214 102.061 137.246 101.96 137.273 101.859C137.297 101.754 137.315 101.65 137.327 101.545C137.347 101.337 137.323 101.128 137.257 100.931C137.191 100.741 137.085 100.569 136.945 100.425V100.426Z" fill="white"/>
</g>
<circle cx="126" cy="93.2656" r="24" fill="url(#paint4_radial_4794_1111)" fill-opacity="0.6" style="mix-blend-mode:multiply"/>
<path d="M28.3984 105.701H148.398V201.701H38.5134C32.9271 201.701 28.3984 197.173 28.3984 191.586V105.701Z" fill="url(#paint5_radial_4794_1111)"/>
<path d="M135.734 105.701H207.734V191.586C207.734 197.173 203.206 201.701 197.619 201.701H145.849C140.263 201.701 135.734 197.173 135.734 191.586V105.701Z" fill="url(#paint6_linear_4794_1111)"/>
<path d="M155.283 147.625C156.857 151 161.152 153.736 164.876 153.736H223.391C227.115 153.736 228.859 151 227.285 147.625L207.736 105.702H135.734L155.283 147.625Z" fill="url(#paint7_radial_4794_1111)"/>
<defs>
<filter id="filter0_d_4794_1111" x="33.8194" y="57.4961" width="60.4801" height="43.8497" filterUnits="userSpaceOnUse" color-interpolation-filters="sRGB">
<feFlood flood-opacity="0" result="BackgroundImageFix"/>
<feColorMatrix in="SourceAlpha" type="matrix" values="0 0 0 0 0 0 0 0 0 0 0 0 0 0 0 0 0 0 127 0" result="hardAlpha"/>
<feOffset dx="1.60245" dy="4.00614"/>
<feGaussianBlur stdDeviation="1.60245"/>
<feComposite in2="hardAlpha" operator="out"/>
<feColorMatrix type="matrix" values="0 0 0 0 0.0980392 0 0 0 0 0.133333 0 0 0 0 0.490196 0 0 0 0.25 0"/>
<feBlend mode="normal" in2="BackgroundImageFix" result="effect1_dropShadow_4794_1111"/>
<feBlend mode="normal" in="SourceGraphic" in2="effect1_dropShadow_4794_1111" result="shape"/>
</filter>
<radialGradient id="paint0_radial_4794_1111" cx="0" cy="0" r="1" gradientTransform="matrix(-414.435 191.654 -821.555 -112.065 240 94.916)" gradientUnits="userSpaceOnUse">
<stop stop-color="#00BDFF"/>
<stop offset="1" stop-color="#35FAFF"/>
</radialGradient>
<linearGradient id="paint1_linear_4794_1111" x1="-1.02379" y1="174.549" x2="26.1871" y2="105.702" gradientUnits="userSpaceOnUse">
<stop stop-color="#ACB8CC"/>
<stop offset="0.566267" stop-color="#3B4556"/>
</linearGradient>
<radialGradient id="paint2_radial_4794_1111" cx="0" cy="0" r="1" gradientUnits="userSpaceOnUse" gradientTransform="translate(174.71 64.9743) rotate(75.4953) scale(52.7826 72.2853)">
<stop offset="0.535117" stop-color="white" stop-opacity="0"/>
<stop offset="1" stop-color="#272E3A"/>
</radialGradient>
<radialGradient id="paint3_radial_4794_1111" cx="0" cy="0" r="1" gradientUnits="userSpaceOnUse" gradientTransform="translate(57.2902 56.9913) rotate(60.6245) scale(74.176 101.584)">
<stop offset="0.42712" stop-color="white" stop-opacity="0"/>
<stop offset="1" stop-color="#3B4556"/>
</radialGradient>
<radialGradient id="paint4_radial_4794_1111" cx="0" cy="0" r="1" gradientTransform="matrix(-18.3937 -44.8446 186.454 -77.7269 131.614 119.735)" gradientUnits="userSpaceOnUse">
<stop stop-color="#272E3A"/>
<stop offset="0.621056" stop-color="white" stop-opacity="0"/>
</radialGradient>
<radialGradient id="paint5_radial_4794_1111" cx="0" cy="0" r="1" gradientUnits="userSpaceOnUse" gradientTransform="translate(44.7505 220.245) rotate(-96.0547) scale(118.795 401.004)">
<stop stop-color="#E1E8F3"/>
<stop offset="1" stop-color="#F8FCFF"/>
</radialGradient>
<linearGradient id="paint6_linear_4794_1111" x1="135.734" y1="201.701" x2="210.638" y2="138.585" gradientUnits="userSpaceOnUse">
<stop stop-color="#ACB8CC"/>
<stop offset="1" stop-color="#3B4556"/>
</linearGradient>
<radialGradient id="paint7_radial_4794_1111" cx="0" cy="0" r="1" gradientTransform="matrix(51.0573 20.1497 12.3307 -45.0979 137.211 105.702)" gradientUnits="userSpaceOnUse">
<stop stop-color="#F8FCFF"/>
<stop offset="1" stop-color="#E1E8F3"/>
</radialGradient>
<clipPath id="clip0_4794_1111">
<path d="M154.076 71.127C164.208 56.6468 184.16 53.122 198.641 63.2541C213.121 73.3863 216.646 93.3386 206.514 107.819C196.381 122.299 176.429 125.824 161.949 115.692C147.469 105.56 143.944 85.6073 154.076 71.127Z" fill="white"/>
</clipPath>
<clipPath id="clip1_4794_1111">
<rect width="64" height="64" fill="white" transform="translate(172.422 44.9082) rotate(34.9814)"/>
</clipPath>
<clipPath id="clip2_4794_1111">
<rect width="24" height="30" fill="white" transform="translate(114 77.8379)"/>
</clipPath>
</defs>
</svg>
