<svg width="240" height="240" viewBox="0 0 240 240" fill="none" xmlns="http://www.w3.org/2000/svg">
<path d="M39.648 108.004L211.789 108L203.281 202.697C201.385 223.803 183.238 239.996 161.481 239.997L27.7891 240L39.648 108.004Z" fill="#00D2FF"/>
<path d="M9.92171 18.0019C10.7249 8.65411 18.4116 1.48209 27.6267 1.48242L96 1.48491L84.6589 133.482L0 133.479L9.92171 18.0019Z" fill="#00FFFF"/>
<path d="M85.7988 10.1952C89.6171 6.71098 95.461 6.71098 99.2793 10.1952L172.537 77.0419H172.539L172.537 77.0428L172.539 77.0438H172.537L92.5391 150.042L12.541 77.0438H12.5391L12.54 77.0428L12.5391 77.0419H12.541L85.7988 10.1952Z" fill="url(#paint0_linear_4794_1178)"/>
<rect x="21.4883" y="52.5078" width="80" height="100" rx="4" transform="rotate(-15 21.4883 52.5078)" fill="url(#paint1_linear_4794_1178)"/>
<rect x="37.9456" y="62.6837" width="9.73881" height="9.73881" rx="2" transform="rotate(-15 37.9456 62.6837)" stroke="#E1E8F3" stroke-width="4"/>
<rect x="48.1995" y="100.957" width="9.73881" height="9.73881" rx="2" transform="rotate(-15 48.1995 100.957)" stroke="#E1E8F3" stroke-width="4"/>
<rect x="76.219" y="52.4298" width="9.73881" height="9.73881" rx="2" transform="rotate(-15 76.219 52.4298)" stroke="#E1E8F3" stroke-width="4"/>
<rect x="53.5421" y="73.5996" width="5" height="5" transform="rotate(-15 53.5421 73.5996)" fill="#E1E8F3" stroke="#E1E8F3"/>
<rect x="57.7842" y="66.252" width="5" height="5" transform="rotate(-15 57.7842 66.252)" fill="#E1E8F3" stroke="#E1E8F3"/>
<rect x="67.8741" y="80.7344" width="5" height="5" transform="rotate(-15 67.8741 80.7344)" fill="#E1E8F3" stroke="#E1E8F3"/>
<rect x="70.9835" y="92.3262" width="5" height="5" transform="rotate(-15 70.9835 92.3262)" fill="#E1E8F3" stroke="#E1E8F3"/>
<rect x="50.6827" y="89.4668" width="5" height="5" transform="rotate(-15 50.6827 89.4668)" fill="#E1E8F3" stroke="#E1E8F3"/>
<rect x="68.5967" y="60.2481" width="5" height="5" transform="rotate(-15 68.5967 60.2481)" fill="#E1E8F3" stroke="#E1E8F3"/>
<rect x="60.9717" y="54.9629" width="5" height="5" transform="rotate(-15 60.9717 54.9629)" fill="#E1E8F3" stroke="#E1E8F3"/>
<rect x="85.7022" y="90.2559" width="5" height="5" transform="rotate(-15 85.7022 90.2559)" fill="#E1E8F3" stroke="#E1E8F3"/>
<rect x="72.1202" y="73.3868" width="5" height="5" transform="rotate(-15 72.1202 73.3868)" fill="#E1E8F3" stroke="#E1E8F3"/>
<rect x="75.2257" y="84.9786" width="5" height="5" transform="rotate(-15 75.2257 84.9786)" fill="#E1E8F3" stroke="#E1E8F3"/>
<rect x="79.4678" y="77.6289" width="5" height="5" transform="rotate(-15 79.4678 77.6289)" fill="#E1E8F3" stroke="#E1E8F3"/>
<rect x="21.4883" y="52.5078" width="80" height="100" rx="4" transform="rotate(-15 21.4883 52.5078)" fill="url(#paint2_linear_4794_1178)"/>
<rect x="74.5742" y="59.3262" width="80" height="100" rx="4" transform="rotate(5 74.5742 59.3262)" fill="white"/>
<rect x="83.3438" y="79.0684" width="32" height="6" rx="3" transform="rotate(5 83.3438 79.0684)" fill="#ACB8CC"/>
<rect x="123.191" y="82.5547" width="20" height="6" rx="3" transform="rotate(5 123.191 82.5547)" fill="#ACB8CC"/>
<rect x="81.6289" y="98.6992" width="60" height="4" rx="2" transform="rotate(5 81.6289 98.6992)" fill="#E1E8F3"/>
<rect x="80.6328" y="110.047" width="22" height="4" rx="2" transform="rotate(5 80.6328 110.047)" fill="#E1E8F3"/>
<rect x="110.062" y="112.623" width="28" height="4" rx="2" transform="rotate(5 110.062 112.623)" fill="#E1E8F3"/>
<path d="M172.539 177.443C172.539 180.803 172.539 182.483 171.885 183.767C171.31 184.896 170.392 185.813 169.263 186.389C167.979 187.043 166.299 187.043 162.939 187.043H22.1387C18.7787 187.043 17.0988 187.043 15.8154 186.389C14.6865 185.813 13.7686 184.896 13.1934 183.767C12.5395 182.483 12.5391 180.803 12.5391 177.443V77.043L92.5391 150.043L172.539 77.043V177.443Z" fill="url(#paint3_linear_4794_1178)"/>
<path d="M172.539 177.443C172.539 180.803 172.539 182.483 171.885 183.767C171.31 184.896 170.392 185.813 169.263 186.389C167.979 187.043 166.299 187.043 162.939 187.043H22.1387C18.7787 187.043 17.0988 187.043 15.8154 186.389C14.6865 185.813 13.7686 184.896 13.1934 183.767C12.5395 182.483 12.5391 180.803 12.5391 177.443V77.043L92.5391 150.043L172.539 77.043V177.443Z" fill="url(#paint4_radial_4794_1178)" fill-opacity="0.5"/>
<path d="M81.7542 123.807C85.5615 120.333 87.4651 118.596 89.6233 117.938C91.5239 117.359 93.5541 117.359 95.4547 117.938C97.6129 118.596 99.5165 120.333 103.324 123.807L163.393 178.621C166.236 181.215 167.658 182.512 167.782 183.635C167.89 184.609 167.516 185.574 166.78 186.221C165.931 186.966 164.006 186.966 160.158 186.966H24.9204C21.0716 186.966 19.1472 186.966 18.2979 186.221C17.5618 185.574 17.1876 184.609 17.2957 183.635C17.4204 182.512 18.8419 181.215 21.685 178.621L81.7542 123.807Z" fill="url(#paint5_linear_4794_1178)"/>
<rect width="160" height="44" rx="6" transform="matrix(1 0 0 -1 67.4609 209.043)" fill="url(#paint6_linear_4794_1178)"/>
<rect width="160" height="44" rx="6" transform="matrix(1 0 0 -1 67.4609 209.043)" fill="url(#paint7_radial_4794_1178)" fill-opacity="0.6"/>
<path d="M93.7912 177.086C94.023 176.529 94.1389 176.25 94.3031 176.167C94.4456 176.094 94.6141 176.094 94.7566 176.167C94.9208 176.25 95.0367 176.529 95.2685 177.086L97.4456 182.321C97.5138 182.485 97.5478 182.567 97.6028 182.629C97.6513 182.684 97.7114 182.728 97.7788 182.757C97.8549 182.79 97.9434 182.797 98.1203 182.811L103.771 183.264C104.373 183.312 104.674 183.336 104.804 183.467C104.917 183.58 104.969 183.74 104.944 183.898C104.915 184.08 104.686 184.276 104.228 184.669L99.9224 188.357C99.7876 188.473 99.7202 188.53 99.678 188.602C99.6406 188.665 99.6177 188.736 99.6107 188.809C99.6029 188.891 99.6235 188.978 99.6646 189.15L100.98 194.665C101.12 195.252 101.19 195.546 101.106 195.71C101.034 195.852 100.897 195.951 100.74 195.976C100.558 196.005 100.3 195.848 99.7848 195.533L94.9468 192.578C94.7954 192.486 94.7196 192.439 94.6386 192.421C94.567 192.405 94.4927 192.405 94.4211 192.421C94.34 192.439 94.2643 192.486 94.1128 192.578L89.2748 195.533C88.7597 195.848 88.5021 196.005 88.3202 195.976C88.1623 195.951 88.0259 195.852 87.9533 195.71C87.8696 195.546 87.9396 195.252 88.0797 194.665L89.395 189.15C89.4362 188.978 89.4568 188.891 89.449 188.809C89.442 188.736 89.4191 188.665 89.3817 188.602C89.3395 188.53 89.2721 188.473 89.1373 188.357L84.8319 184.669C84.3734 184.276 84.1442 184.08 84.1155 183.898C84.0906 183.74 84.1427 183.58 84.2556 183.467C84.3858 183.336 84.6867 183.312 85.2884 183.264L90.9394 182.811C91.1163 182.797 91.2047 182.79 91.2809 182.757C91.3482 182.728 91.4083 182.684 91.4569 182.629C91.5118 182.567 91.5459 182.485 91.6141 182.321L93.7912 177.086Z" fill="#0062FF"/>
<path d="M120.256 177.086C120.488 176.529 120.604 176.25 120.768 176.167C120.91 176.094 121.079 176.094 121.221 176.167C121.386 176.25 121.502 176.529 121.733 177.086L123.91 182.321C123.979 182.485 124.013 182.567 124.068 182.629C124.116 182.684 124.176 182.728 124.244 182.757C124.32 182.79 124.408 182.797 124.585 182.811L130.236 183.264C130.838 183.312 131.139 183.336 131.269 183.467C131.382 183.58 131.434 183.74 131.409 183.898C131.38 184.08 131.151 184.276 130.693 184.669L126.387 188.357C126.252 188.473 126.185 188.53 126.143 188.602C126.105 188.665 126.083 188.736 126.076 188.809C126.068 188.891 126.088 188.978 126.129 189.15L127.445 194.665C127.585 195.252 127.655 195.546 127.571 195.71C127.499 195.852 127.362 195.951 127.204 195.976C127.022 196.005 126.765 195.848 126.25 195.533L121.412 192.578C121.26 192.486 121.184 192.439 121.103 192.421C121.032 192.405 120.958 192.405 120.886 192.421C120.805 192.439 120.729 192.486 120.578 192.578L115.74 195.533C115.225 195.848 114.967 196.005 114.785 195.976C114.627 195.951 114.491 195.852 114.418 195.71C114.334 195.546 114.404 195.252 114.545 194.665L115.86 189.15C115.901 188.978 115.922 188.891 115.914 188.809C115.907 188.736 115.884 188.665 115.847 188.602C115.804 188.53 115.737 188.473 115.602 188.357L111.297 184.669C110.838 184.276 110.609 184.08 110.58 183.898C110.555 183.74 110.608 183.58 110.72 183.467C110.851 183.336 111.152 183.312 111.753 183.264L117.404 182.811C117.581 182.797 117.67 182.79 117.746 182.757C117.813 182.728 117.873 182.684 117.922 182.629C117.977 182.567 118.011 182.485 118.079 182.321L120.256 177.086Z" fill="#0062FF"/>
<path d="M146.725 177.086C146.957 176.529 147.073 176.25 147.237 176.167C147.379 176.094 147.548 176.094 147.69 176.167C147.854 176.25 147.97 176.529 148.202 177.086L150.379 182.321C150.447 182.485 150.481 182.567 150.536 182.629C150.585 182.684 150.645 182.728 150.712 182.757C150.789 182.79 150.877 182.797 151.054 182.811L156.705 183.264C157.307 183.312 157.607 183.336 157.738 183.467C157.851 183.58 157.903 183.74 157.878 183.898C157.849 184.08 157.62 184.276 157.161 184.669L152.856 188.357C152.721 188.473 152.654 188.53 152.612 188.602C152.574 188.665 152.551 188.736 152.544 188.809C152.536 188.891 152.557 188.978 152.598 189.15L153.914 194.665C154.054 195.252 154.124 195.546 154.04 195.71C153.967 195.852 153.831 195.951 153.673 195.976C153.491 196.005 153.234 195.848 152.718 195.533L147.88 192.578C147.729 192.486 147.653 192.439 147.572 192.421C147.501 192.405 147.426 192.405 147.355 192.421C147.274 192.439 147.198 192.486 147.046 192.578L142.208 195.533C141.693 195.848 141.436 196.005 141.254 195.976C141.096 195.951 140.96 195.852 140.887 195.71C140.803 195.546 140.873 195.252 141.013 194.665L142.329 189.15C142.37 188.978 142.39 188.891 142.383 188.809C142.376 188.736 142.353 188.665 142.315 188.602C142.273 188.53 142.206 188.473 142.071 188.357L137.765 184.669C137.307 184.276 137.078 184.08 137.049 183.898C137.024 183.74 137.076 183.58 137.189 183.467C137.319 183.336 137.62 183.312 138.222 183.264L143.873 182.811C144.05 182.797 144.138 182.79 144.214 182.757C144.282 182.728 144.342 182.684 144.391 182.629C144.445 182.567 144.48 182.485 144.548 182.321L146.725 177.086Z" fill="#0062FF"/>
<path d="M173.19 177.086C173.421 176.529 173.537 176.25 173.702 176.167C173.844 176.094 174.013 176.094 174.155 176.167C174.319 176.25 174.435 176.529 174.667 177.086L176.844 182.321C176.912 182.485 176.946 182.567 177.001 182.629C177.05 182.684 177.11 182.728 177.177 182.757C177.253 182.79 177.342 182.797 177.519 182.811L183.17 183.264C183.771 183.312 184.072 183.336 184.202 183.467C184.315 183.58 184.368 183.74 184.343 183.898C184.314 184.08 184.085 184.276 183.626 184.669L179.321 188.357C179.186 188.473 179.119 188.53 179.076 188.602C179.039 188.665 179.016 188.736 179.009 188.809C179.001 188.891 179.022 188.978 179.063 189.15L180.378 194.665C180.519 195.252 180.589 195.546 180.505 195.71C180.432 195.852 180.296 195.951 180.138 195.976C179.956 196.005 179.698 195.848 179.183 195.533L174.345 192.578C174.194 192.486 174.118 192.439 174.037 192.421C173.965 192.405 173.891 192.405 173.819 192.421C173.738 192.439 173.663 192.486 173.511 192.578L168.673 195.533C168.158 195.848 167.901 196.005 167.719 195.976C167.561 195.951 167.424 195.852 167.352 195.71C167.268 195.546 167.338 195.252 167.478 194.665L168.793 189.15C168.835 188.978 168.855 188.891 168.847 188.809C168.84 188.736 168.817 188.665 168.78 188.602C168.738 188.53 168.671 188.473 168.536 188.357L164.23 184.669C163.772 184.276 163.543 184.08 163.514 183.898C163.489 183.74 163.541 183.58 163.654 183.467C163.784 183.336 164.085 183.312 164.687 183.264L170.338 182.811C170.515 182.797 170.603 182.79 170.679 182.757C170.747 182.728 170.807 182.684 170.855 182.629C170.91 182.567 170.944 182.485 171.013 182.321L173.19 177.086Z" fill="#0062FF"/>
<path d="M199.654 177.086C199.886 176.529 200.002 176.25 200.166 176.167C200.309 176.094 200.477 176.094 200.62 176.167C200.784 176.25 200.9 176.529 201.132 177.086L203.309 182.321C203.377 182.485 203.411 182.567 203.466 182.629C203.515 182.684 203.575 182.728 203.642 182.757C203.718 182.79 203.807 182.797 203.984 182.811L209.635 183.264C210.236 183.312 210.537 183.336 210.667 183.467C210.78 183.58 210.832 183.74 210.807 183.898C210.779 184.08 210.55 184.276 210.091 184.669L205.786 188.357C205.651 188.473 205.583 188.53 205.541 188.602C205.504 188.665 205.481 188.736 205.474 188.809C205.466 188.891 205.487 188.978 205.528 189.15L206.843 194.665C206.983 195.252 207.053 195.546 206.97 195.71C206.897 195.852 206.761 195.951 206.603 195.976C206.421 196.005 206.163 195.848 205.648 195.533L200.81 192.578C200.659 192.486 200.583 192.439 200.502 192.421C200.43 192.405 200.356 192.405 200.284 192.421C200.203 192.439 200.128 192.486 199.976 192.578L195.138 195.533C194.623 195.848 194.365 196.005 194.183 195.976C194.026 195.951 193.889 195.852 193.817 195.71C193.733 195.546 193.803 195.252 193.943 194.665L195.258 189.15C195.3 188.978 195.32 188.891 195.312 188.809C195.305 188.736 195.282 188.665 195.245 188.602C195.203 188.53 195.135 188.473 195.001 188.357L190.695 184.669C190.237 184.276 190.007 184.08 189.979 183.898C189.954 183.74 190.006 183.58 190.119 183.467C190.249 183.336 190.55 183.312 191.152 183.264L196.803 182.811C196.98 182.797 197.068 182.79 197.144 182.757C197.212 182.728 197.272 182.684 197.32 182.629C197.375 182.567 197.409 182.485 197.477 182.321L199.654 177.086Z" fill="#ACB8CC"/>
<circle cx="177.359" cy="146.84" r="24" fill="url(#paint8_radial_4794_1178)"/>
<path d="M173.513 134.283C173.572 133.842 174.134 133.691 174.405 134.044L179.465 140.619C179.58 140.767 179.768 140.839 179.952 140.806L188.112 139.305C188.55 139.225 188.867 139.713 188.615 140.08L183.926 146.924C183.82 147.079 183.809 147.28 183.898 147.445L187.847 154.742C188.058 155.133 187.692 155.585 187.266 155.46L179.307 153.115C179.127 153.062 178.933 153.114 178.804 153.25L173.084 159.26C172.777 159.582 172.234 159.373 172.222 158.929L171.992 150.635C171.987 150.448 171.877 150.279 171.708 150.198L164.225 146.615C163.824 146.423 163.854 145.842 164.273 145.693L172.09 142.912C172.267 142.849 172.393 142.693 172.418 142.507L173.513 134.283Z" fill="white"/>
<defs>
<linearGradient id="paint0_linear_4794_1178" x1="92.5391" y1="7.58203" x2="92.5391" y2="157.905" gradientUnits="userSpaceOnUse">
<stop stop-color="#7D91AF"/>
<stop offset="1" stop-color="#3B4556"/>
</linearGradient>
<linearGradient id="paint1_linear_4794_1178" x1="25.6636" y1="50.2293" x2="45.505" y2="75.5782" gradientUnits="userSpaceOnUse">
<stop stop-color="#F0F5FD"/>
<stop offset="1" stop-color="white"/>
</linearGradient>
<linearGradient id="paint2_linear_4794_1178" x1="69.4167" y1="133.319" x2="14.681" y2="64.8917" gradientUnits="userSpaceOnUse">
<stop stop-color="#ACB8CC"/>
<stop offset="1" stop-color="white" stop-opacity="0"/>
</linearGradient>
<linearGradient id="paint3_linear_4794_1178" x1="92.5391" y1="103.738" x2="92.5391" y2="187.043" gradientUnits="userSpaceOnUse">
<stop stop-color="#E1E8F3"/>
<stop offset="1" stop-color="#ACB8CC"/>
</linearGradient>
<radialGradient id="paint4_radial_4794_1178" cx="0" cy="0" r="1" gradientUnits="userSpaceOnUse" gradientTransform="translate(95.8589 119.816) rotate(-94.9348) scale(38.5937 66.1493)">
<stop stop-color="white"/>
<stop offset="1" stop-color="white" stop-opacity="0"/>
</radialGradient>
<linearGradient id="paint5_linear_4794_1178" x1="92.539" y1="130.623" x2="92.5391" y2="186.965" gradientUnits="userSpaceOnUse">
<stop stop-color="#F0F5FD"/>
<stop offset="0.880676" stop-color="#ACB8CC"/>
</linearGradient>
<linearGradient id="paint6_linear_4794_1178" x1="90.0998" y1="9.97316" x2="160" y2="28.8726" gradientUnits="userSpaceOnUse">
<stop stop-color="white"/>
<stop offset="1" stop-color="#F0F5FD"/>
</linearGradient>
<radialGradient id="paint7_radial_4794_1178" cx="0" cy="0" r="1" gradientUnits="userSpaceOnUse" gradientTransform="translate(107.164 43.0078) rotate(-125.222) scale(25.7156 20.532)">
<stop stop-color="#60B1FF"/>
<stop offset="1" stop-color="#BAE8FF" stop-opacity="0"/>
</radialGradient>
<radialGradient id="paint8_radial_4794_1178" cx="0" cy="0" r="1" gradientUnits="userSpaceOnUse" gradientTransform="translate(158.325 126.229) rotate(50.9315) scale(32.8369 42.6709)">
<stop stop-color="#60B1FF"/>
<stop offset="1" stop-color="#0062FF"/>
</radialGradient>
</defs>
</svg>
