<svg width="240" height="240" viewBox="0 0 240 240" fill="none" xmlns="http://www.w3.org/2000/svg">
<g id="SEO">
<path id="Rectangle 1028" d="M67.859 108.004L240 108L231.492 202.697C229.596 223.803 211.449 239.996 189.692 239.997L56 240L67.859 108.004Z" fill="url(#paint0_linear_4794_923)"/>
<path id="Rectangle 1029" d="M10.1991 27.1659C11.0022 17.8182 18.689 10.6461 27.9041 10.6465L96.2773 10.649L84.9362 142.646L0.277344 142.643L10.1991 27.1659Z" fill="#007CCC"/>
<g id="window">
<g clip-path="url(#clip0_4794_923)">
<rect x="26.4004" y="19.8828" width="187" height="122.117" rx="8" fill="url(#paint1_radial_4794_923)"/>
<path id="Rectangle 2292" d="M26.4004 27.8828C26.4004 23.4645 29.9821 19.8828 34.4004 19.8828H205.4C209.819 19.8828 213.4 23.4645 213.4 27.8828V33.8828H26.4004V27.8828Z" fill="url(#paint2_linear_4794_923)"/>
<circle id="Ellipse 63" cx="36.416" cy="27.3828" r="3" fill="#ACB8CC"/>
<circle id="Ellipse 64" cx="48.416" cy="27.3828" r="3" fill="#ACB8CC"/>
<circle id="Ellipse 1510" cx="60.416" cy="27.3828" r="3" fill="#ACB8CC"/>
</g>
</g>
<g id="search bar">
<g clip-path="url(#clip1_4794_923)">
<rect x="19.1992" y="58.7617" width="201.6" height="21.6" rx="10.8" fill="url(#paint3_radial_4794_923)"/>
<rect id="text" x="26.3984" y="67.7617" width="36" height="4" rx="2" fill="#7D91AF"/>
<rect id="text_2" x="70.3984" y="67.7617" width="24" height="4" rx="2" fill="#7D91AF"/>
<path id="search icon" d="M205.115 62.9785C208.097 62.9786 210.515 65.3966 210.515 68.3789C210.515 69.3241 210.27 70.2117 209.844 70.9844L213.204 74.3447C213.731 74.8719 213.731 75.7267 213.204 76.2539C212.677 76.7811 211.822 76.7811 211.295 76.2539L207.989 72.9482C207.157 73.4729 206.172 73.7783 205.115 73.7783C202.133 73.7782 199.715 71.361 199.715 68.3789C199.715 65.3966 202.133 62.9786 205.115 62.9785ZM205.115 65.6787C203.624 65.6788 202.415 66.8878 202.415 68.3789C202.415 69.8698 203.624 71.078 205.115 71.0781C206.606 71.078 207.815 69.8698 207.815 68.3789C207.815 66.8878 206.606 65.6788 205.115 65.6787Z" fill="#ACB8CC"/>
</g>
</g>
<g id="body" opacity="0.1" style="mix-blend-mode:darken">
<rect x="13.1992" y="87.6641" width="212" height="76" rx="12" fill="url(#paint4_linear_4794_923)"/>
</g>
<g id="body_2" opacity="0.25" style="mix-blend-mode:darken">
<rect x="16.1992" y="89.9609" width="206" height="70" rx="9" fill="url(#paint5_linear_4794_923)"/>
</g>
<g id="body_3">
<rect x="19.1992" y="92.9609" width="200" height="64" rx="8" fill="url(#paint6_radial_4794_923)"/>
<rect x="19.1992" y="92.9609" width="200" height="64" rx="8" fill="url(#paint7_radial_4794_923)" fill-opacity="0.5"/>
<rect x="19.1992" y="92.9609" width="200" height="64" rx="8" fill="url(#paint8_radial_4794_923)" fill-opacity="0.5"/>
</g>
<rect id="title" x="29.5547" y="115.961" width="48" height="6" rx="3" fill="#3478FF"/>
<rect id="title_2" x="85.5547" y="115.961" width="24" height="6" rx="3" fill="#3478FF"/>
<g id="Rectangle 2299" style="mix-blend-mode:multiply">
<rect x="123.953" y="129.961" width="79.2" height="4" rx="2" fill="#E1E8F3"/>
</g>
<g id="Rectangle 2300" style="mix-blend-mode:multiply">
<rect x="29.5547" y="129.961" width="86.4" height="4" rx="2" fill="#E1E8F3"/>
</g>
<g id="Rectangle 2301" style="mix-blend-mode:multiply">
<rect x="29.5547" y="103.961" width="40" height="4" rx="2" fill="#E1E8F3"/>
</g>
<g id="text_3" style="mix-blend-mode:multiply">
<rect x="29.5547" y="141.961" width="40" height="4" rx="2" fill="#E1E8F3"/>
</g>
<g id="text_4" style="mix-blend-mode:multiply">
<rect x="77.5547" y="141.961" width="72" height="4" rx="2" fill="#E1E8F3"/>
</g>
<g id="text_5" style="mix-blend-mode:multiply">
<rect x="157.555" y="141.961" width="48" height="4" rx="2" fill="#E1E8F3"/>
</g>
<path id="star" d="M209.136 113.424C209.83 117.359 213.486 120.026 217.406 119.538L217.786 119.481L217.972 120.533L217.971 120.534C213.911 121.249 211.199 125.12 211.913 129.18L210.864 129.365C210.146 125.306 206.274 122.597 202.215 123.313L202.03 122.261C206.09 121.544 208.802 117.673 208.086 113.612C208.086 113.61 208.086 113.609 208.086 113.608L209.136 113.423L209.136 113.424Z" fill="white"/>
<path id="star_2" d="M21.7916 110.015C20.2409 115.803 23.5202 121.748 29.1586 123.569L29.7116 123.731L29.2978 125.275L29.2969 125.275C23.3238 123.675 17.1837 127.218 15.5807 133.19L14.0366 132.776C15.5835 126.99 12.3049 121.05 6.66878 119.229L6.11509 119.066L6.52909 117.52L6.52978 117.522C12.5045 119.123 18.6462 115.577 20.2472 109.602C20.2478 109.599 20.2485 109.597 20.2492 109.594L21.7933 110.008C21.7928 110.01 21.7921 110.013 21.7916 110.015Z" fill="white"/>
<g id="Frame 2772">
<rect x="30.9375" y="167.828" width="180" height="64" rx="8" fill="url(#paint9_radial_4794_923)"/>
<rect id="Rectangle 2302" x="78.0938" y="190.828" width="48" height="6" rx="3" fill="#80B3FF"/>
<rect id="Rectangle 2306" x="42.0938" y="190.828" width="28" height="6" rx="3" fill="#80B3FF"/>
<g id="Rectangle 2304" style="mix-blend-mode:screen">
<rect x="42.0938" y="204.828" width="72" height="4" rx="2" fill="#E1E8F3"/>
</g>
<g id="Rectangle 2307" style="mix-blend-mode:screen">
<rect x="122.094" y="204.828" width="24" height="4" rx="2" fill="#E1E8F3"/>
</g>
<g id="Rectangle 2308" style="mix-blend-mode:screen">
<rect x="154.094" y="204.828" width="32" height="4" rx="2" fill="#E1E8F3"/>
</g>
<g id="Rectangle 2310" style="mix-blend-mode:screen">
<rect x="42.0938" y="178.828" width="32" height="4" rx="2" fill="#E1E8F3"/>
</g>
<g id="Rectangle 2305" style="mix-blend-mode:screen">
<rect x="42.0938" y="216.828" width="48" height="4" rx="2" fill="#E1E8F3"/>
</g>
<g id="Rectangle 2309" style="mix-blend-mode:screen">
<rect x="98.0938" y="216.828" width="88" height="4" rx="2" fill="#E1E8F3"/>
</g>
</g>
<g id="Frame" clip-path="url(#clip2_4794_923)">
<path id="Vector" d="M113.639 46.8422C113.639 48.7125 112.12 50.0907 110.256 50.0907C108.392 50.0907 106.873 48.7125 106.873 46.8422C106.873 44.9588 108.392 43.5938 110.256 43.5938C112.12 43.5938 113.639 44.9588 113.639 46.8422ZM112.158 46.8422C112.158 45.6735 111.278 44.8738 110.256 44.8738C109.234 44.8738 108.354 45.6735 108.354 46.8422C108.354 47.9993 109.234 48.8107 110.256 48.8107C111.278 48.8107 112.158 47.9978 112.158 46.8422Z" fill="#7D91AF"/>
<path id="Vector_2" d="M120.938 46.8422C120.938 48.7125 119.419 50.0907 117.555 50.0907C115.691 50.0907 114.172 48.7125 114.172 46.8422C114.172 44.9602 115.691 43.5938 117.555 43.5938C119.419 43.5938 120.938 44.9588 120.938 46.8422ZM119.457 46.8422C119.457 45.6735 118.577 44.8738 117.555 44.8738C116.533 44.8738 115.653 45.6735 115.653 46.8422C115.653 47.9993 116.533 48.8107 117.555 48.8107C118.577 48.8107 119.457 47.9978 119.457 46.8422Z" fill="#7D91AF"/>
<path id="Vector_3" d="M127.932 43.79V49.6221C127.932 52.0211 126.463 53.0009 124.727 53.0009C123.092 53.0009 122.108 51.9478 121.737 51.0867L123.027 50.5697C123.256 51.0984 123.819 51.7223 124.725 51.7223C125.837 51.7223 126.526 51.0618 126.526 49.8183V49.3511H126.474C126.142 49.7451 125.504 50.0893 124.698 50.0893C123.012 50.0893 121.467 48.6745 121.467 46.854C121.467 45.0203 123.012 43.5938 124.698 43.5938C125.502 43.5938 126.141 43.9379 126.474 44.3202H126.526V43.7915H127.932V43.79ZM126.631 46.854C126.631 45.7101 125.838 44.8738 124.83 44.8738C123.808 44.8738 122.952 45.7101 122.952 46.854C122.952 47.9861 123.808 48.8107 124.83 48.8107C125.838 48.8107 126.631 47.9861 126.631 46.854Z" fill="#7D91AF"/>
<path id="Vector_4" d="M130.251 40.3711V49.891H128.807V40.3711H130.251Z" fill="#7D91AF"/>
<path id="Vector_5" d="M135.88 47.9109L137.03 48.6491C136.659 49.1778 135.765 50.0888 134.22 50.0888C132.304 50.0888 130.873 48.6623 130.873 46.8403C130.873 44.9085 132.316 43.5918 134.054 43.5918C135.804 43.5918 136.66 44.9334 136.94 45.6584L137.094 46.0274L132.585 47.826C132.93 48.4777 133.467 48.8102 134.22 48.8102C134.974 48.8102 135.497 48.4528 135.88 47.9109ZM132.342 46.7422L135.356 45.5368C135.19 45.1311 134.691 44.8484 134.104 44.8484C133.352 44.8484 132.304 45.4885 132.342 46.7422Z" fill="#7D91AF"/>
<g id="Vector_6">
<path d="M101.405 45.9961V44.6179H106.227C106.274 44.8581 106.298 45.1422 106.298 45.4498C106.298 46.4838 106.005 47.7624 105.059 48.6734C104.139 49.5961 102.964 50.0882 101.407 50.0882C98.5205 50.0882 96.0938 47.8239 96.0938 45.0441C96.0938 42.2643 98.5205 40 101.407 40C103.003 40 104.14 40.6034 104.995 41.3899L103.985 42.3624C103.373 41.8088 102.542 41.3782 101.405 41.3782C99.2975 41.3782 97.6493 43.0142 97.6493 45.0441C97.6493 47.074 99.2975 48.71 101.405 48.71C102.772 48.71 103.551 48.1813 104.049 47.7009C104.454 47.3113 104.72 46.7547 104.825 45.9946L101.405 45.9961Z" fill="#4285F4"/>
<path d="M101.405 45.9961V44.6179H106.227C106.274 44.8581 106.298 45.1422 106.298 45.4498C106.298 46.4838 106.005 47.7624 105.059 48.6734C104.139 49.5961 102.964 50.0882 101.407 50.0882C98.5205 50.0882 96.0938 47.8239 96.0938 45.0441C96.0938 42.2643 98.5205 40 101.407 40C103.003 40 104.14 40.6034 104.995 41.3899L103.985 42.3624C103.373 41.8088 102.542 41.3782 101.405 41.3782C99.2975 41.3782 97.6493 43.0142 97.6493 45.0441C97.6493 47.074 99.2975 48.71 101.405 48.71C102.772 48.71 103.551 48.1813 104.049 47.7009C104.454 47.3113 104.72 46.7547 104.825 45.9946L101.405 45.9961Z" fill="#7D91AF"/>
</g>
</g>
</g>
<defs>
<linearGradient id="paint0_linear_4794_923" x1="148" y1="240" x2="148" y2="108" gradientUnits="userSpaceOnUse">
<stop stop-color="#35FAFF"/>
<stop offset="1" stop-color="#00CDFF"/>
</linearGradient>
<radialGradient id="paint1_radial_4794_923" cx="0" cy="0" r="1" gradientTransform="matrix(-200.251 -112.849 212.772 -311.216 242.406 148.647)" gradientUnits="userSpaceOnUse">
<stop stop-color="#E1E8F3"/>
<stop offset="1" stop-color="#F8FCFF"/>
</radialGradient>
<linearGradient id="paint2_linear_4794_923" x1="93.9496" y1="26.8828" x2="241.156" y2="26.8828" gradientUnits="userSpaceOnUse">
<stop stop-color="white"/>
<stop offset="1" stop-color="#F0F5FD"/>
</linearGradient>
<radialGradient id="paint3_radial_4794_923" cx="0" cy="0" r="1" gradientTransform="matrix(-218 -17 226.733 -58.4021 225.342 77.5)" gradientUnits="userSpaceOnUse">
<stop stop-color="#F0F5FD"/>
<stop offset="0.256349" stop-color="white"/>
<stop offset="0.883541" stop-color="white"/>
<stop offset="1" stop-color="#F8FCFF"/>
</radialGradient>
<linearGradient id="paint4_linear_4794_923" x1="233.014" y1="140.729" x2="39.8756" y2="61.0235" gradientUnits="userSpaceOnUse">
<stop stop-color="#3478FF"/>
<stop offset="0.348808" stop-color="#4BDFF9"/>
<stop offset="0.675245" stop-color="white"/>
<stop offset="1" stop-color="#F548F0"/>
</linearGradient>
<linearGradient id="paint5_linear_4794_923" x1="229.793" y1="138.837" x2="45.1568" y2="58.45" gradientUnits="userSpaceOnUse">
<stop stop-color="#3478FF"/>
<stop offset="0.348808" stop-color="#4BDFF9"/>
<stop offset="0.675245" stop-color="white"/>
<stop offset="1" stop-color="#F548F0"/>
</linearGradient>
<radialGradient id="paint6_radial_4794_923" cx="0" cy="0" r="1" gradientTransform="matrix(-200 -59.9399 213.649 -147.62 219.199 156.961)" gradientUnits="userSpaceOnUse">
<stop stop-color="#E1E8F3"/>
<stop offset="1" stop-color="white"/>
</radialGradient>
<radialGradient id="paint7_radial_4794_923" cx="0" cy="0" r="1" gradientTransform="matrix(45.74 -0.652521 0.785071 46.6028 19.1992 118.599)" gradientUnits="userSpaceOnUse">
<stop stop-color="#C871F3"/>
<stop offset="0.646944" stop-color="white" stop-opacity="0"/>
</radialGradient>
<radialGradient id="paint8_radial_4794_923" cx="0" cy="0" r="1" gradientTransform="matrix(-35.0087 -11.7512 13.2876 -40.1747 213.671 123.877)" gradientUnits="userSpaceOnUse">
<stop stop-color="#388AFE"/>
<stop offset="0.752027" stop-color="white" stop-opacity="0"/>
</radialGradient>
<radialGradient id="paint9_radial_4794_923" cx="0" cy="0" r="1" gradientTransform="matrix(-271.7 -65.5188 119.442 -444.996 302.637 236.945)" gradientUnits="userSpaceOnUse">
<stop stop-color="white" stop-opacity="0.5"/>
<stop offset="1" stop-color="#F0F5FD"/>
</radialGradient>
<clipPath id="clip0_4794_923">
<rect x="26.4004" y="19.8828" width="187" height="122.117" rx="8" fill="white"/>
</clipPath>
<clipPath id="clip1_4794_923">
<rect x="19.1992" y="58.7617" width="201.6" height="21.6" rx="10.8" fill="white"/>
</clipPath>
<clipPath id="clip2_4794_923">
<rect width="41" height="13" fill="white" transform="translate(96.0938 40)"/>
</clipPath>
</defs>
</svg>
