<svg width="240" height="240" viewBox="0 0 240 240" fill="none" xmlns="http://www.w3.org/2000/svg">
<g clip-path="url(#clip0_4794_1079)">
<path d="M67.859 131.996L240 132L231.492 37.3026C229.596 16.1972 211.449 0.00376892 189.692 0.00323486L56 0L67.859 131.996Z" fill="#00C1FF"/>
<path d="M9.92171 223.481C10.7249 232.828 18.4116 240 27.6267 240L96 239.998L84.6589 108L0 108.003L9.92171 223.481Z" fill="url(#paint0_linear_4794_1079)"/>
<path d="M202.768 99.5195L46.4703 99.5195C42.7566 99.5195 39.7461 102.534 39.7461 106.251L39.7461 219.858C39.7461 223.576 42.7566 226.59 46.4703 226.59H202.768C206.482 226.59 209.492 223.576 209.492 219.858V106.251C209.492 102.534 206.482 99.5195 202.768 99.5195Z" fill="url(#paint1_radial_4794_1079)"/>
<path d="M78.5078 120.799H127.007V57.0723L85.7699 57.0723L78.5078 120.799Z" fill="#0062FF"/>
<path d="M175.503 120.799H127.004V57.0723L168.241 57.0723L175.503 120.799ZM209.492 69.1524L209.552 69.3697C209.538 69.293 209.508 69.2218 209.492 69.1524Z" fill="#60B1FF"/>
<path d="M209.556 69.3697L209.496 69.1524C207.958 62.1035 201.726 57.0768 194.519 57.0723H168.244L175.501 120.801H224L209.556 69.3697Z" fill="#0062FF"/>
<path d="M44.4569 69.3638L44.5171 69.1466C46.0547 62.0976 52.2866 57.071 59.4934 57.0664L85.7703 57.0664L78.5028 120.795H30.0039L44.4569 69.3638Z" fill="#60B1FF"/>
<path fill-rule="evenodd" clip-rule="evenodd" d="M78.5906 120.781C78.5906 134.182 67.7398 145.045 54.3549 145.045C40.9699 145.045 30.1191 134.182 30.1191 120.781H78.5906Z" fill="#4D94FF"/>
<path fill-rule="evenodd" clip-rule="evenodd" d="M127.061 120.781C127.061 134.182 116.211 145.045 102.826 145.045C89.4406 145.045 78.5898 134.182 78.5898 120.781H127.061Z" fill="#0055FF"/>
<path fill-rule="evenodd" clip-rule="evenodd" d="M175.53 120.781C175.53 134.182 164.679 145.045 151.294 145.045C137.909 145.045 127.059 134.182 127.059 120.781H175.53Z" fill="#4D94FF"/>
<path fill-rule="evenodd" clip-rule="evenodd" d="M224.001 120.781C224.001 134.182 213.15 145.045 199.765 145.045C186.38 145.045 175.529 134.182 175.529 120.781H224.001Z" fill="#0055FF"/>
<rect x="61.457" y="13" width="32.0589" height="32.0589" rx="16.0294" transform="rotate(0.0980037 61.457 13)" fill="url(#paint2_linear_4794_1079)"/>
<path d="M74.1718 25.5072C75.7017 23.9771 77.9547 23.5911 79.8368 24.3663C80.2531 24.5211 80.6165 24.7417 80.8996 24.9465L79.3278 25.6726C77.8645 25.0582 76.1879 25.4761 75.1648 26.5003C73.8244 27.8408 73.5204 30.1349 74.9769 31.6866L75.1224 31.8355L70.6953 35.7943C70.9761 35.4073 71.3249 35.0417 71.6723 34.6761C72.6525 33.6448 73.6254 32.623 73.0318 31.1785C72.2371 29.2456 72.7002 26.9804 74.1718 25.5072Z" fill="#0A0A0A"/>
<path d="M84.5341 22.5564C83.0767 24.5654 82.3654 25.5477 82.9364 28.0056L82.9327 28.0025C83.3264 29.6756 82.905 31.5308 81.5452 32.892C79.8309 34.6092 77.0875 34.9917 74.8283 33.446L76.4037 32.7157C77.8456 33.2825 79.4232 33.0338 80.5569 31.8989C81.6906 30.764 81.9452 29.111 81.3754 27.7355C81.2672 27.4747 80.942 27.4089 80.7148 27.5768L76.0786 31.0033L82.7194 24.3261L82.7194 24.3317L84.6376 22.4121C84.6032 22.4609 84.5685 22.5088 84.5341 22.5564Z" fill="#0A0A0A"/>
<rect x="143.955" y="124.215" width="63.2562" height="63.2562" rx="31.6281" transform="rotate(0.0980037 143.955 124.215)" fill="url(#paint3_linear_4794_1079)"/>
<path d="M184.779 153.938C184.962 153.39 185.055 152.816 185.055 152.238C185.055 151.282 184.8 150.344 184.317 149.519C183.347 147.829 181.546 146.786 179.597 146.786C179.214 146.786 178.83 146.826 178.455 146.907C177.95 146.338 177.331 145.883 176.637 145.571C175.943 145.259 175.191 145.098 174.43 145.098L174.396 145.098C174.393 145.098 174.387 145.098 174.383 145.098C172.023 145.098 169.93 146.621 169.205 148.866C167.685 149.177 166.374 150.129 165.607 151.477C165.125 152.307 164.871 153.249 164.871 154.209C164.871 155.557 165.372 156.857 166.276 157.858C166.093 158.406 166 158.98 166 159.558C166 160.514 166.255 161.453 166.738 162.278C167.709 163.968 169.509 165.01 171.458 165.01C171.842 165.01 172.225 164.97 172.6 164.889C173.105 165.458 173.725 165.914 174.418 166.225C175.112 166.537 175.864 166.699 176.625 166.699L176.659 166.699L176.673 166.699C179.034 166.699 181.127 165.176 181.852 162.928C183.372 162.618 184.683 161.665 185.45 160.318C185.931 159.488 186.185 158.547 186.184 157.588C186.184 156.24 185.684 154.939 184.78 153.939L184.779 153.938ZM176.66 165.286L176.655 165.286C175.71 165.286 174.795 164.955 174.069 164.35C174.112 164.326 174.155 164.302 174.197 164.277L178.498 161.793C178.605 161.732 178.694 161.643 178.756 161.537C178.819 161.43 178.851 161.309 178.851 161.185L178.851 155.117L180.669 156.167C180.689 156.177 180.702 156.195 180.705 156.217L180.705 161.238C180.702 163.471 178.893 165.282 176.66 165.286ZM167.963 161.572C167.608 160.958 167.421 160.261 167.42 159.551C167.42 159.319 167.441 159.087 167.48 158.859C167.512 158.879 167.568 158.913 167.608 158.936L171.909 161.42C172.016 161.482 172.138 161.515 172.262 161.515C172.386 161.515 172.508 161.482 172.615 161.42L177.866 158.388L177.866 160.487C177.867 160.498 177.865 160.509 177.86 160.518C177.856 160.528 177.849 160.537 177.84 160.543L173.493 163.053C172.877 163.407 172.18 163.594 171.47 163.594C170.76 163.594 170.062 163.407 169.446 163.052C168.83 162.697 168.319 162.187 167.963 161.572L167.963 161.572ZM166.832 152.182C167.304 151.362 168.05 150.734 168.939 150.408C168.939 150.445 168.937 150.51 168.937 150.556L168.937 155.525L168.936 155.529C168.936 155.652 168.969 155.773 169.031 155.88C169.093 155.987 169.182 156.075 169.289 156.136L174.541 159.168L172.723 160.217C172.714 160.223 172.703 160.227 172.693 160.228C172.682 160.229 172.671 160.227 172.661 160.223L168.313 157.71C167.698 157.354 167.188 156.843 166.833 156.227C166.478 155.612 166.292 154.914 166.292 154.204C166.292 153.494 166.478 152.797 166.832 152.183L166.832 152.182ZM181.767 155.658L176.516 152.626L178.334 151.577C178.343 151.571 178.354 151.567 178.364 151.566C178.375 151.565 178.386 151.567 178.396 151.571L182.744 154.082C183.995 154.805 184.768 156.142 184.768 157.588C184.768 159.284 183.709 160.801 182.118 161.387L182.118 156.27C182.118 156.268 182.118 156.266 182.118 156.264C182.118 156.014 181.984 155.783 181.767 155.658ZM183.577 152.935C183.545 152.915 183.489 152.882 183.449 152.859L179.148 150.374C179.041 150.312 178.919 150.279 178.795 150.279C178.671 150.279 178.549 150.312 178.442 150.374L173.191 153.406L173.191 151.307L173.191 151.303C173.191 151.293 173.193 151.283 173.197 151.274C173.202 151.265 173.209 151.257 173.217 151.251L177.564 148.743C178.179 148.388 178.877 148.202 179.587 148.202C181.822 148.202 183.635 150.015 183.635 152.25C183.635 152.48 183.616 152.709 183.577 152.935V152.935ZM172.202 156.677L170.384 155.627C170.374 155.622 170.366 155.615 170.36 155.607C170.354 155.598 170.35 155.588 170.349 155.577L170.349 150.556C170.35 148.321 172.162 146.51 174.397 146.51C175.343 146.51 176.26 146.842 176.987 147.447C176.944 147.47 176.902 147.494 176.86 147.519L172.559 150.004C172.451 150.065 172.362 150.153 172.3 150.26C172.238 150.367 172.205 150.488 172.205 150.611L172.205 150.615L172.202 156.677ZM173.19 154.548L175.529 153.197L177.867 154.547L177.867 157.247L175.529 158.597L173.19 157.247L173.19 154.548Z" fill="black"/>
<rect x="17.4219" y="128.49" width="76.2842" height="76.2842" rx="38.1421" transform="rotate(0.0980037 17.4219 128.49)" fill="url(#paint4_linear_4794_1079)"/>
<path d="M55.4995 153.805C55.7703 153.805 56.0065 153.989 56.0726 154.251C56.2747 155.051 56.5409 155.834 56.8688 156.592C57.7259 158.574 58.902 160.309 60.3952 161.795C61.8892 163.282 63.6317 164.453 65.6228 165.306C66.3844 165.632 67.171 165.897 67.9751 166.098C68.2379 166.164 68.4228 166.399 68.4228 166.668C68.4228 166.938 68.2379 167.173 67.9747 167.239C67.1707 167.44 66.3842 167.705 65.6228 168.031C63.6313 168.885 61.8888 170.055 60.3952 171.542C58.902 173.029 57.7259 174.763 56.8688 176.745C56.5409 177.503 56.2745 178.286 56.0722 179.086C56.0402 179.214 55.9665 179.326 55.8627 179.407C55.759 179.488 55.6311 179.532 55.4995 179.532C55.2286 179.532 54.9928 179.348 54.9267 179.086C54.7245 178.286 54.4581 177.503 54.1301 176.745C53.2734 174.763 52.0977 173.028 50.6037 171.542C49.1101 170.055 47.3676 168.885 45.3761 168.031C44.6147 167.705 43.8282 167.44 43.0242 167.238C42.8965 167.207 42.7831 167.133 42.7019 167.03C42.6208 166.927 42.5765 166.8 42.5762 166.669C42.5762 166.399 42.7614 166.164 43.0242 166.099C43.8283 165.897 44.6148 165.632 45.3761 165.306C47.3676 164.453 49.1105 163.282 50.6037 161.796C52.0973 160.309 53.2734 158.574 54.1305 156.592C54.4583 155.834 54.7246 155.051 54.9267 154.251C54.9586 154.124 55.0322 154.011 55.136 153.93C55.2398 153.849 55.3677 153.805 55.4995 153.805Z" fill="url(#paint5_radial_4794_1079)"/>
<path d="M55.4995 153.805C55.7703 153.805 56.0065 153.989 56.0726 154.251C56.2747 155.051 56.5409 155.834 56.8688 156.592C57.7259 158.574 58.902 160.309 60.3952 161.795C61.8892 163.282 63.6317 164.453 65.6228 165.306C66.3844 165.632 67.171 165.897 67.9751 166.098C68.2379 166.164 68.4228 166.399 68.4228 166.668C68.4228 166.938 68.2379 167.173 67.9747 167.239C67.1707 167.44 66.3842 167.705 65.6228 168.031C63.6313 168.885 61.8888 170.055 60.3952 171.542C58.902 173.029 57.7259 174.763 56.8688 176.745C56.5409 177.503 56.2745 178.286 56.0722 179.086C56.0402 179.214 55.9665 179.326 55.8627 179.407C55.759 179.488 55.6311 179.532 55.4995 179.532C55.2286 179.532 54.9928 179.348 54.9267 179.086C54.7245 178.286 54.4581 177.503 54.1301 176.745C53.2734 174.763 52.0977 173.028 50.6037 171.542C49.1101 170.055 47.3676 168.885 45.3761 168.031C44.6147 167.705 43.8282 167.44 43.0242 167.238C42.8965 167.207 42.7831 167.133 42.7019 167.03C42.6208 166.927 42.5765 166.8 42.5762 166.669C42.5762 166.399 42.7614 166.164 43.0242 166.099C43.8283 165.897 44.6148 165.632 45.3761 165.306C47.3676 164.453 49.1105 163.282 50.6037 161.796C52.0973 160.309 53.2734 158.574 54.1305 156.592C54.4583 155.834 54.7246 155.051 54.9267 154.251C54.9586 154.124 55.0322 154.011 55.136 153.93C55.2398 153.849 55.3677 153.805 55.4995 153.805Z" fill="url(#paint6_radial_4794_1079)"/>
<path d="M55.4995 153.805C55.7703 153.805 56.0065 153.989 56.0726 154.251C56.2747 155.051 56.5409 155.834 56.8688 156.592C57.7259 158.574 58.902 160.309 60.3952 161.795C61.8892 163.282 63.6317 164.453 65.6228 165.306C66.3844 165.632 67.171 165.897 67.9751 166.098C68.2379 166.164 68.4228 166.399 68.4228 166.668C68.4228 166.938 68.2379 167.173 67.9747 167.239C67.1707 167.44 66.3842 167.705 65.6228 168.031C63.6313 168.885 61.8888 170.055 60.3952 171.542C58.902 173.029 57.7259 174.763 56.8688 176.745C56.5409 177.503 56.2745 178.286 56.0722 179.086C56.0402 179.214 55.9665 179.326 55.8627 179.407C55.759 179.488 55.6311 179.532 55.4995 179.532C55.2286 179.532 54.9928 179.348 54.9267 179.086C54.7245 178.286 54.4581 177.503 54.1301 176.745C53.2734 174.763 52.0977 173.028 50.6037 171.542C49.1101 170.055 47.3676 168.885 45.3761 168.031C44.6147 167.705 43.8282 167.44 43.0242 167.238C42.8965 167.207 42.7831 167.133 42.7019 167.03C42.6208 166.927 42.5765 166.8 42.5762 166.669C42.5762 166.399 42.7614 166.164 43.0242 166.099C43.8283 165.897 44.6148 165.632 45.3761 165.306C47.3676 164.453 49.1105 163.282 50.6037 161.796C52.0973 160.309 53.2734 158.574 54.1305 156.592C54.4583 155.834 54.7246 155.051 54.9267 154.251C54.9586 154.124 55.0322 154.011 55.136 153.93C55.2398 153.849 55.3677 153.805 55.4995 153.805Z" fill="url(#paint7_radial_4794_1079)"/>
<path d="M55.4995 153.805C55.7703 153.805 56.0065 153.989 56.0726 154.251C56.2747 155.051 56.5409 155.834 56.8688 156.592C57.7259 158.574 58.902 160.309 60.3952 161.795C61.8892 163.282 63.6317 164.453 65.6228 165.306C66.3844 165.632 67.171 165.897 67.9751 166.098C68.2379 166.164 68.4228 166.399 68.4228 166.668C68.4228 166.938 68.2379 167.173 67.9747 167.239C67.1707 167.44 66.3842 167.705 65.6228 168.031C63.6313 168.885 61.8888 170.055 60.3952 171.542C58.902 173.029 57.7259 174.763 56.8688 176.745C56.5409 177.503 56.2745 178.286 56.0722 179.086C56.0402 179.214 55.9665 179.326 55.8627 179.407C55.759 179.488 55.6311 179.532 55.4995 179.532C55.2286 179.532 54.9928 179.348 54.9267 179.086C54.7245 178.286 54.4581 177.503 54.1301 176.745C53.2734 174.763 52.0977 173.028 50.6037 171.542C49.1101 170.055 47.3676 168.885 45.3761 168.031C44.6147 167.705 43.8282 167.44 43.0242 167.238C42.8965 167.207 42.7831 167.133 42.7019 167.03C42.6208 166.927 42.5765 166.8 42.5762 166.669C42.5762 166.399 42.7614 166.164 43.0242 166.099C43.8283 165.897 44.6148 165.632 45.3761 165.306C47.3676 164.453 49.1105 163.282 50.6037 161.796C52.0973 160.309 53.2734 158.574 54.1305 156.592C54.4583 155.834 54.7246 155.051 54.9267 154.251C54.9586 154.124 55.0322 154.011 55.136 153.93C55.2398 153.849 55.3677 153.805 55.4995 153.805Z" fill="url(#paint8_radial_4794_1079)"/>
<rect x="135.26" y="17.877" width="54.3736" height="54.3736" rx="27.1868" transform="rotate(0.0980037 135.26 17.877)" fill="url(#paint9_linear_4794_1079)"/>
<path fill-rule="evenodd" clip-rule="evenodd" d="M163.164 38.6683L168.339 33.6526C168.556 33.442 168.878 33.3818 169.157 33.4999C169.435 33.6182 169.616 33.8919 169.616 34.1944L169.606 39.7093L171.545 39.7126C171.96 39.7134 172.297 40.051 172.296 40.4668L172.28 49.7666C172.279 50.1823 171.942 50.5189 171.526 50.5182L169.587 50.5149L169.578 56.0489C169.577 56.3538 169.393 56.6287 169.111 56.7444C168.829 56.8601 168.504 56.7939 168.29 56.5772L163.143 51.3751L163.131 58.0976L161.626 58.095L161.637 51.3725L156.472 56.557C156.257 56.7729 155.933 56.8379 155.651 56.7214C155.369 56.6047 155.185 56.3293 155.186 56.0243L155.195 50.4903L153.257 50.487C152.841 50.4862 152.504 50.1485 152.505 49.7328L152.521 40.433C152.522 40.0172 152.859 39.6807 153.275 39.6814L155.214 39.6847L155.223 34.1698C155.224 33.8672 155.405 33.5942 155.684 33.4769C155.963 33.3597 156.286 33.421 156.502 33.6323L161.659 38.6657L161.67 32.1211L163.176 32.1237L163.164 38.6683ZM156.707 47.2961L156.695 54.1998L161.332 49.545L161.328 49.5413L161.641 49.2319L161.653 42.287L156.707 47.2961ZM163.146 49.2345L163.458 49.5449L163.454 49.549L168.075 54.2193L168.087 47.3156L163.158 42.2892L163.146 49.2345ZM169.378 46.4818C169.516 46.6228 169.594 46.8126 169.593 47.0101L169.59 49.0092L170.776 49.0112L170.789 41.2171L164.204 41.2058L169.378 46.4818ZM154.012 48.9825L155.198 48.9845L155.201 46.9855C155.202 46.788 155.28 46.5985 155.418 46.4579L160.61 41.1997L154.025 41.1884L154.012 48.9825ZM156.72 39.6873L160.556 39.6938L156.726 35.9549L156.72 39.6873ZM164.263 39.7002L168.1 39.7067L168.107 35.9744L164.263 39.7002Z" fill="#20808D"/>
<rect x="0.0839844" y="64.0742" width="49.6274" height="49.6274" rx="24.8137" transform="rotate(0.0980037 0.0839844 64.0742)" fill="url(#paint10_linear_4794_1079)"/>
<path d="M19.0872 92.0469L22.8227 89.9604L22.8853 89.7786L22.8227 89.6781L22.6401 89.6781L22.0151 89.6398L19.8805 89.5824L18.0296 89.5058L16.2363 89.4101L15.7844 89.3143L15.3613 88.7592L15.4046 88.4817L15.7844 88.2281L16.3277 88.276L17.5295 88.3573L19.3324 88.4817L20.6401 88.5582L22.5776 88.7592L22.8853 88.7592L22.9285 88.6348L22.8227 88.5582L22.7411 88.4817L20.8757 87.2231L18.8565 85.8928L17.7988 85.1271L17.2267 84.7394L16.9382 84.3758L16.8133 83.5814L17.3325 83.0119L18.0296 83.0598L18.2075 83.1077L18.9142 83.6484L20.4237 84.8113L22.3949 86.2564L22.6833 86.4957L22.7987 86.4143L22.8132 86.3569L22.6833 86.1415L21.6112 84.213L20.467 82.251L19.9574 81.4375L19.8228 80.9494C19.7747 80.7483 19.7411 80.5809 19.7411 80.3751L20.3324 79.5759L20.6593 79.4707L21.4478 79.576L21.7795 79.8631L22.2699 80.9781L23.0632 82.7344L24.2939 85.1223L24.6545 85.8306L24.8467 86.4862L24.9189 86.6872L25.0439 86.6872L25.0439 86.5723L25.1448 85.2276L25.3323 83.5766L25.515 81.4519L25.5776 80.8538L25.8756 80.1359L26.4669 79.7483L26.9285 79.9684L27.3083 80.5092L27.2554 80.8584L27.0294 82.318L26.5872 84.6055L26.2987 86.1369L26.4669 86.1369L26.6593 85.9454L27.4381 84.9166L28.7457 83.2895L29.3227 82.6434L29.9957 81.9304L30.4284 81.5907L31.2457 81.5907L31.8466 82.4808L31.5775 83.3996L30.7361 84.4619L30.039 85.3616L29.039 86.7015L28.414 87.7735L28.4717 87.8596L28.6208 87.8453L30.8803 87.3667L32.1015 87.1465L33.5582 86.8977L34.2169 87.204L34.2889 87.5151L34.0293 88.1515L32.4716 88.5343L30.6447 88.898L27.9237 89.5393L27.89 89.5633L27.9285 89.6111L29.1544 89.7259L29.6785 89.7546L30.9621 89.7546L33.3514 89.9317L33.9765 90.3433L34.3514 90.8457L34.2889 91.2285L33.3274 91.7167L32.0294 91.4104L29.0006 90.6926L27.9621 90.4342L27.8179 90.4342L27.8179 90.5203L28.6833 91.3625L30.2697 92.7886L32.2553 94.6263L32.3562 95.0809L32.1015 95.4397L31.8322 95.4015L30.087 94.0951L29.414 93.5064L27.89 92.2287L27.7891 92.2287L27.7891 92.3627L28.14 92.8747L29.9957 95.6503L30.0919 96.5021L29.9573 96.7797L29.4765 96.9472L28.9476 96.8514L27.8611 95.3345L26.741 93.626L25.8371 92.0947L25.7266 92.157L25.1929 97.8756L24.9429 98.1674L24.366 98.3876L23.8853 98.0239L23.6304 97.4353L23.8852 96.2724L24.1929 94.7555L24.4429 93.5495L24.6689 92.0517L24.8035 91.554L24.7938 91.5205L24.6833 91.5348L23.5487 93.0853L21.8228 95.4063L20.4574 96.861L20.1305 96.9903L19.5632 96.6983L19.6161 96.1767L19.9333 95.7126L21.8227 93.3198L22.9621 91.8363L23.6978 90.9798L23.6929 90.8553L23.6497 90.8553L18.6304 94.0999L17.7362 94.2147L17.3516 93.8558L17.3996 93.2672L17.5824 93.0757L19.0919 92.0421L19.0872 92.0469Z" fill="#D97757"/>
</g>
<defs>
<linearGradient id="paint0_linear_4794_1079" x1="66.0842" y1="133.951" x2="15.6843" y2="254.571" gradientUnits="userSpaceOnUse">
<stop stop-color="#00D2FF"/>
<stop offset="1" stop-color="#00FFFF"/>
</linearGradient>
<radialGradient id="paint1_radial_4794_1079" cx="0" cy="0" r="1" gradientUnits="userSpaceOnUse" gradientTransform="translate(124.92 125.521) rotate(104.328) scale(181.496 242.451)">
<stop stop-color="#D7F6FF"/>
<stop offset="1" stop-color="#60B1FF"/>
</radialGradient>
<linearGradient id="paint2_linear_4794_1079" x1="90.9099" y1="5.17329" x2="58.0951" y2="22.478" gradientUnits="userSpaceOnUse">
<stop stop-color="white" stop-opacity="0"/>
<stop offset="1" stop-color="white"/>
</linearGradient>
<linearGradient id="paint3_linear_4794_1079" x1="202.069" y1="108.772" x2="137.322" y2="142.916" gradientUnits="userSpaceOnUse">
<stop stop-color="white" stop-opacity="0"/>
<stop offset="1" stop-color="white"/>
</linearGradient>
<linearGradient id="paint4_linear_4794_1079" x1="87.505" y1="109.867" x2="9.4221" y2="151.043" gradientUnits="userSpaceOnUse">
<stop stop-color="white" stop-opacity="0"/>
<stop offset="1" stop-color="white"/>
</linearGradient>
<radialGradient id="paint5_radial_4794_1079" cx="0" cy="0" r="1" gradientUnits="userSpaceOnUse" gradientTransform="translate(42.5762 166.668) scale(25.4034 20.488)">
<stop stop-color="#4893FC"/>
<stop offset="1" stop-color="#4893FC"/>
</radialGradient>
<radialGradient id="paint6_radial_4794_1079" cx="0" cy="0" r="1" gradientUnits="userSpaceOnUse" gradientTransform="translate(40.1033 166.668) scale(26.6388 30.0479)">
<stop offset="0.173594" stop-color="#FBBC04"/>
<stop offset="0.777" stop-color="#FBBC04" stop-opacity="0"/>
</radialGradient>
<radialGradient id="paint7_radial_4794_1079" cx="0" cy="0" r="1" gradientTransform="matrix(8.46709 10.5026 -14.3826 11.4884 53.846 156.908)" gradientUnits="userSpaceOnUse">
<stop offset="0.100962" stop-color="#F44D4E"/>
<stop offset="0.661893" stop-color="#F44D4E" stop-opacity="0"/>
</radialGradient>
<radialGradient id="paint8_radial_4794_1079" cx="0" cy="0" r="1" gradientTransform="matrix(8.14144 -12.8366 20.1897 12.6873 51.4362 178.172)" gradientUnits="userSpaceOnUse">
<stop offset="0.162305" stop-color="#00B95C"/>
<stop offset="0.591038" stop-color="#00B95C" stop-opacity="0"/>
</radialGradient>
<linearGradient id="paint9_linear_4794_1079" x1="185.213" y1="4.60241" x2="129.558" y2="33.9522" gradientUnits="userSpaceOnUse">
<stop stop-color="white" stop-opacity="0"/>
<stop offset="1" stop-color="white"/>
</linearGradient>
<linearGradient id="paint10_linear_4794_1079" x1="45.6773" y1="51.9584" x2="-5.12035" y2="78.7463" gradientUnits="userSpaceOnUse">
<stop stop-color="white" stop-opacity="0"/>
<stop offset="1" stop-color="white"/>
</linearGradient>
<clipPath id="clip0_4794_1079">
<rect width="240" height="240" fill="white"/>
</clipPath>
</defs>
</svg>
