<svg width="240" height="240" viewBox="0 0 240 240" fill="none" xmlns="http://www.w3.org/2000/svg">
<path d="M42.523 90.8889L214.664 90.8848L206.156 185.582C204.26 206.688 186.113 222.881 164.356 222.882L30.6641 222.885L42.523 90.8889Z" fill="url(#paint0_radial_4794_1370)"/>
<path d="M33.9217 33.6347C34.7249 24.2869 42.4116 17.1149 51.6267 17.1152L120 17.1177L108.659 149.115L24 149.112L33.9217 33.6347Z" fill="#00FFFF"/>
<g clip-path="url(#clip0_4794_1370)">
<rect x="164.543" y="97.4473" width="73.6" height="96" rx="5.28" transform="rotate(5 164.543 97.4473)" fill="url(#paint1_linear_4794_1370)"/>
<rect x="178.195" y="105.166" width="19.2" height="3.2" rx="1.6" transform="rotate(5 178.195 105.166)" fill="#ACB8CC"/>
<circle cx="171.678" cy="106.201" r="3.2" transform="rotate(5 171.678 106.201)" fill="#7D91AF"/>
<mask id="mask0_4794_1370" style="mask-type:alpha" maskUnits="userSpaceOnUse" x="163" y="114" width="69" height="63">
<rect x="168.285" y="114.137" width="64" height="57.6" rx="3.38041" transform="rotate(5 168.285 114.137)" fill="url(#paint2_linear_4794_1370)"/>
</mask>
<g mask="url(#mask0_4794_1370)">
<rect x="160.449" y="113.453" width="81.2266" height="57.6447" rx="2.8724" transform="rotate(5 160.449 113.453)" fill="url(#paint3_linear_4794_1370)"/>
<path d="M157.023 152.607L237.941 159.687L236.593 175.097C236.454 176.677 235.061 177.846 233.481 177.708L158.286 171.129C156.706 170.991 155.537 169.598 155.675 168.018L157.023 152.607Z" fill="url(#paint4_linear_4794_1370)"/>
<circle cx="198.959" cy="139.276" r="15.7213" transform="rotate(5 198.959 139.276)" fill="url(#paint5_linear_4794_1370)"/>
<path d="M170.817 146.155C176.68 143.136 183.795 143.771 189.062 147.741C196.544 153.382 205.515 156.846 214.851 157.663L157.024 152.604L157.18 150.813C161.906 149.938 166.502 148.377 170.817 146.155Z" fill="#B690EB"/>
<path d="M170.817 146.155C176.68 143.136 183.795 143.771 189.062 147.741C196.544 153.382 205.515 156.846 214.851 157.663L157.024 152.604L157.18 150.813C161.906 149.938 166.502 148.377 170.817 146.155Z" fill="url(#paint6_radial_4794_1370)" fill-opacity="0.4" style="mix-blend-mode:overlay"/>
<path d="M220.522 140.075C231.814 141.063 232.595 148.153 238.444 153.957L237.943 159.683C217.11 157.861 189.054 155.406 180.211 154.633C203.362 156.658 202.401 138.49 220.522 140.075Z" fill="url(#paint7_radial_4794_1370)"/>
<path d="M220.522 140.075C231.814 141.063 232.595 148.153 238.444 153.957L237.943 159.683C217.11 157.861 189.054 155.406 180.211 154.633C203.362 156.658 202.401 138.49 220.522 140.075Z" fill="url(#paint8_radial_4794_1370)" fill-opacity="0.4" style="mix-blend-mode:overlay"/>
<path d="M190.473 155.53L204.497 156.757L208.508 175.519L183.265 173.311L190.473 155.53Z" fill="url(#paint9_linear_4794_1370)"/>
<path d="M197.062 156.109L195.464 174.381" stroke="url(#paint10_linear_4794_1370)" stroke-width="2.62021" stroke-dasharray="3.93 3.93"/>
</g>
<rect x="162.691" y="178.094" width="38.4" height="3.2" rx="1.6" transform="rotate(5 162.691 178.094)" fill="#E1E8F3"/>
<rect x="207.32" y="181.998" width="19.2" height="3.2" rx="1.6" transform="rotate(5 207.32 181.998)" fill="#E1E8F3"/>
<rect x="162.062" y="185.266" width="19.2" height="3.2" rx="1.6" transform="rotate(5 162.062 185.266)" fill="#E1E8F3"/>
<rect x="187.566" y="187.498" width="38.4" height="3.2" rx="1.6" transform="rotate(5 187.566 187.498)" fill="#E1E8F3"/>
<path d="M164.083 102.707C164.337 99.8022 166.898 97.6533 169.803 97.9074L232.603 103.402C235.508 103.656 237.657 106.217 237.403 109.122L229.956 194.237C229.702 197.142 227.141 199.291 224.236 199.036L161.436 193.542C158.531 193.288 156.382 190.727 156.636 187.822L164.083 102.707Z" fill="url(#paint11_radial_4794_1370)"/>
</g>
<g clip-path="url(#clip1_4794_1370)">
<rect x="40.9766" y="103.861" width="73.6" height="96" rx="5.28" transform="rotate(-5 40.9766 103.861)" fill="url(#paint12_linear_4794_1370)"/>
<rect x="55.7617" y="109.092" width="19.2" height="3.2" rx="1.6" transform="rotate(-5 55.7617 109.092)" fill="#ACB8CC"/>
<rect x="53.1562" y="183.602" width="19.2" height="3.2" rx="1.6" transform="rotate(-5 53.1562 183.602)" fill="#E1E8F3"/>
<rect x="78.6602" y="181.371" width="38.4" height="3.2" rx="1.6" transform="rotate(-5 78.6602 181.371)" fill="#E1E8F3"/>
<rect x="53.7852" y="190.773" width="38.4" height="3.2" rx="1.6" transform="rotate(-5 53.7852 190.773)" fill="#E1E8F3"/>
<rect x="98.4141" y="186.869" width="19.2" height="3.2" rx="1.6" transform="rotate(-5 98.4141 186.869)" fill="#E1E8F3"/>
<circle cx="49.5253" cy="111.245" r="3.2" transform="rotate(-5 49.5253 111.245)" fill="#7D91AF"/>
<mask id="mask1_4794_1370" style="mask-type:alpha" maskUnits="userSpaceOnUse" x="47" y="114" width="70" height="63">
<rect x="47.5625" y="119.648" width="64" height="57.6" rx="3.38041" transform="rotate(-5 47.5625 119.648)" fill="url(#paint13_linear_4794_1370)"/>
</mask>
<g mask="url(#mask1_4794_1370)">
<rect x="37.4883" y="119.08" width="83.2" height="59.0452" rx="2.94219" transform="rotate(-5 37.4883 119.08)" fill="url(#paint14_linear_4794_1370)"/>
<path d="M40.9961 159.184L123.879 151.932L125.26 167.717C125.402 169.336 124.205 170.763 122.586 170.904L45.5645 177.643C43.9457 177.784 42.5187 176.587 42.3771 174.968L40.9961 159.184Z" fill="url(#paint15_linear_4794_1370)"/>
<path d="M41.9036 169.541C41.9036 169.541 48.897 170.808 61.5385 169.706C78.1299 168.259 90.0135 164.059 103.633 162.867C116.66 161.727 124.787 162.29 124.787 162.29L125.262 167.717C125.403 169.335 124.206 170.763 122.587 170.904L45.5658 177.643C43.947 177.784 42.52 176.587 42.3783 174.968L41.9036 169.541Z" fill="url(#paint16_linear_4794_1370)"/>
<circle cx="79.9207" cy="135.671" r="13.4194" transform="rotate(-5 79.9207 135.671)" fill="url(#paint17_linear_4794_1370)"/>
<path d="M93.6233 158.582C94.4381 159.737 95.0791 161.029 95.5052 162.422L68.9922 164.742C69.1699 163.296 69.5769 161.912 70.1787 160.633L93.6233 158.582Z" fill="url(#paint18_radial_4794_1370)"/>
<path d="M89.7647 154.919C91.2737 155.873 92.5876 157.119 93.6223 158.585L70.1835 160.635C70.9479 159.012 72.0249 157.557 73.345 156.355L89.7647 154.919Z" fill="url(#paint19_radial_4794_1370)"/>
<g opacity="0.3" style="mix-blend-mode:multiply">
<rect x="37.4883" y="119.08" width="83.2" height="59.0452" transform="rotate(-5 37.4883 119.08)" fill="url(#paint20_radial_4794_1370)"/>
</g>
</g>
<rect x="40.9766" y="103.861" width="73.6" height="96" rx="5.28" transform="rotate(-5 40.9766 103.861)" fill="url(#paint21_radial_4794_1370)"/>
</g>
<g clip-path="url(#clip2_4794_1370)">
<rect x="102.617" y="111.783" width="73.6" height="96" rx="5.28" fill="url(#paint22_linear_4794_1370)"/>
<rect x="116.891" y="118.283" width="19.2" height="3.2" rx="1.6" fill="#ACB8CC"/>
<circle cx="110.489" cy="119.884" r="3.2" fill="#7D91AF"/>
<mask id="mask2_4794_1370" style="mask-type:alpha" maskUnits="userSpaceOnUse" x="107" y="128" width="65" height="58">
<rect x="107.801" y="128.084" width="64" height="57.6" rx="3.38041" fill="url(#paint23_linear_4794_1370)"/>
</mask>
<g mask="url(#mask2_4794_1370)">
<rect x="91.4609" y="126.557" width="95.998" height="61.827" rx="3.34639" fill="url(#paint24_linear_4794_1370)"/>
<path d="M91.4609 172.148H187.459V189.801C187.459 191.649 185.961 193.147 184.113 193.147H94.8073C92.9592 193.147 91.4609 191.649 91.4609 189.801V172.148Z" fill="url(#paint25_linear_4794_1370)"/>
<circle cx="135.76" cy="146.35" r="11.1003" fill="url(#paint26_linear_4794_1370)"/>
<path d="M153.107 177.35C154.035 178.943 154.722 180.693 155.117 182.552H120.41C120.806 180.693 121.492 178.943 122.419 177.35H153.107Z" fill="url(#paint27_radial_4794_1370)"/>
<path d="M148.512 172.146C150.363 173.559 151.928 175.327 153.105 177.349H122.418C123.595 175.327 125.16 173.559 127.012 172.146H148.512Z" fill="url(#paint28_radial_4794_1370)"/>
<path d="M108.18 163.264C114.678 159.164 123 159.179 129.516 163.252C138.773 169.039 149.536 172.148 160.453 172.149H91.457V170.418C97.3464 168.941 102.994 166.535 108.18 163.264Z" fill="#B690EB"/>
<path d="M165.247 151.162C178.453 151.162 180.078 159.313 187.458 165.456V172.15C163.094 172.15 130.284 172.15 119.941 172.15C147.016 172.151 144.055 151.162 165.247 151.162Z" fill="#726FD8"/>
</g>
<rect x="107.801" y="192.172" width="19.2" height="3.2" rx="1.6" fill="#E1E8F3"/>
<rect x="133.402" y="192.172" width="38.4" height="3.2" rx="1.6" fill="#E1E8F3"/>
<rect x="107.801" y="199.371" width="38.4" height="3.2" rx="1.6" fill="#E1E8F3"/>
<rect x="152.602" y="199.371" width="19.2" height="3.2" rx="1.6" fill="#E1E8F3"/>
</g>
<rect x="172.34" y="56.2832" width="40" height="20" rx="4" fill="url(#paint29_linear_4794_1370)"/>
<path d="M192.692 60.4033C192.692 63.454 195.165 65.9276 198.216 65.9277C198.257 65.9277 198.298 65.9247 198.339 65.9238V66.7588C198.298 66.7579 198.257 66.7559 198.216 66.7559C195.165 66.756 192.692 69.2287 192.692 72.2793V72.2812H191.863V72.2793C191.863 69.2288 189.39 66.7562 186.34 66.7559V65.9268C189.39 65.9264 191.863 63.4539 191.863 60.4033C191.863 60.3625 191.861 60.3218 191.86 60.2812H192.695C192.694 60.3218 192.692 60.3625 192.692 60.4033Z" fill="white"/>
<rect x="40.9766" y="56.4082" width="124" height="20" rx="4" fill="url(#paint30_linear_4794_1370)"/>
<rect x="50.9766" y="64.4082" width="24" height="4" rx="2" fill="#ACB8CC"/>
<rect x="78.9766" y="64.4082" width="32" height="4" rx="2" fill="#ACB8CC"/>
<circle cx="13.6133" cy="66.2832" r="10" fill="url(#paint31_linear_4794_1370)"/>
<path d="M15.1119 61.9199V70.6472H13.0067V63.8887H12.9556L11.0039 65.0819V63.258L13.1559 61.9199H15.1119Z" fill="white"/>
<circle cx="13.6133" cy="102.283" r="10" fill="url(#paint32_linear_4794_1370)"/>
<path d="M10.4482 106.294V104.777L13.6314 101.99C13.87 101.774 14.0732 101.577 14.2408 101.398C14.4084 101.216 14.5362 101.034 14.6243 100.852C14.7124 100.667 14.7564 100.467 14.7564 100.251C14.7564 100.01 14.7038 99.8038 14.5987 99.6333C14.4936 99.46 14.3487 99.3265 14.1641 99.2328C13.9794 99.139 13.7678 99.0922 13.5291 99.0922C13.2876 99.0922 13.076 99.1419 12.8942 99.2413C12.7124 99.3379 12.5703 99.4785 12.468 99.6632C12.3686 99.8478 12.3189 100.072 12.3189 100.336H10.3203C10.3203 99.7427 10.4538 99.2299 10.7209 98.7981C10.9879 98.3663 11.3629 98.0339 11.8459 97.801C12.3317 97.5652 12.8956 97.4473 13.5376 97.4473C14.1996 97.4473 14.7749 97.5581 15.2635 97.7797C15.7521 98.0012 16.13 98.3109 16.397 98.7086C16.6669 99.1035 16.8018 99.5623 16.8018 100.085C16.8018 100.417 16.7351 100.747 16.6016 101.074C16.468 101.4 16.228 101.761 15.8814 102.156C15.5376 102.551 15.049 103.024 14.4155 103.575L13.3714 104.538V104.594H16.9084V106.294H10.4482Z" fill="white"/>
<defs>
<radialGradient id="paint0_radial_4794_1370" cx="0" cy="0" r="1" gradientUnits="userSpaceOnUse" gradientTransform="translate(68.2232 85.0203) rotate(53.1635) scale(182.703 329.49)">
<stop stop-color="#60B1FF"/>
<stop offset="1" stop-color="#00D2FF"/>
</radialGradient>
<linearGradient id="paint1_linear_4794_1370" x1="201.343" y1="97.4473" x2="201.343" y2="196.576" gradientUnits="userSpaceOnUse">
<stop stop-color="white"/>
<stop offset="1" stop-color="#F0F5FD"/>
</linearGradient>
<linearGradient id="paint2_linear_4794_1370" x1="183.488" y1="137.091" x2="180.294" y2="107.853" gradientUnits="userSpaceOnUse">
<stop stop-color="#FFD8FF"/>
<stop offset="1" stop-color="#C9DEFF"/>
</linearGradient>
<linearGradient id="paint3_linear_4794_1370" x1="169.335" y1="149.067" x2="168.938" y2="105.711" gradientUnits="userSpaceOnUse">
<stop stop-color="#FFD8FF"/>
<stop offset="1" stop-color="#B7D3FF"/>
</linearGradient>
<linearGradient id="paint4_linear_4794_1370" x1="204.763" y1="153.66" x2="202.519" y2="185.959" gradientUnits="userSpaceOnUse">
<stop stop-color="#DD96E6"/>
<stop offset="1" stop-color="#316AD3"/>
</linearGradient>
<linearGradient id="paint5_linear_4794_1370" x1="195.758" y1="135.82" x2="201.564" y2="176.071" gradientUnits="userSpaceOnUse">
<stop stop-color="white"/>
<stop offset="1" stop-color="#F5C6FB"/>
</linearGradient>
<radialGradient id="paint6_radial_4794_1370" cx="0" cy="0" r="1" gradientTransform="matrix(-1.60742 18.3729 -39.5767 -25.5855 187.142 141.356)" gradientUnits="userSpaceOnUse">
<stop stop-color="white"/>
<stop offset="0.448953" stop-color="white" stop-opacity="0"/>
</radialGradient>
<radialGradient id="paint7_radial_4794_1370" cx="0" cy="0" r="1" gradientTransform="matrix(28.6973 40.4562 -44.6197 31.6523 208.116 132.141)" gradientUnits="userSpaceOnUse">
<stop stop-color="#726FD8"/>
<stop offset="1" stop-color="#413E8C"/>
</radialGradient>
<radialGradient id="paint8_radial_4794_1370" cx="0" cy="0" r="1" gradientTransform="matrix(9.03251 35.0787 -70.6421 18.191 210.094 134.848)" gradientUnits="userSpaceOnUse">
<stop stop-color="white"/>
<stop offset="0.448953" stop-color="white" stop-opacity="0"/>
</radialGradient>
<linearGradient id="paint9_linear_4794_1370" x1="197.485" y1="156.143" x2="195.33" y2="180.776" gradientUnits="userSpaceOnUse">
<stop stop-color="#726FD8" stop-opacity="0"/>
<stop offset="0.883846" stop-color="#E8D7FF"/>
</linearGradient>
<linearGradient id="paint10_linear_4794_1370" x1="197.561" y1="156.153" x2="195.962" y2="174.425" gradientUnits="userSpaceOnUse">
<stop stop-color="#888888"/>
<stop offset="1" stop-color="white"/>
</linearGradient>
<radialGradient id="paint11_radial_4794_1370" cx="0" cy="0" r="1" gradientUnits="userSpaceOnUse" gradientTransform="translate(147.414 177.681) rotate(-51.6869) scale(92.1603 70.6562)">
<stop stop-color="#7D91AF"/>
<stop offset="1" stop-color="white" stop-opacity="0"/>
</radialGradient>
<linearGradient id="paint12_linear_4794_1370" x1="77.7766" y1="103.861" x2="77.7766" y2="202.99" gradientUnits="userSpaceOnUse">
<stop stop-color="white"/>
<stop offset="1" stop-color="#F0F5FD"/>
</linearGradient>
<linearGradient id="paint13_linear_4794_1370" x1="62.7654" y1="142.603" x2="59.571" y2="113.365" gradientUnits="userSpaceOnUse">
<stop stop-color="#FFD8FF"/>
<stop offset="1" stop-color="#C9DEFF"/>
</linearGradient>
<linearGradient id="paint14_linear_4794_1370" x1="46.5897" y1="155.56" x2="46.1829" y2="111.15" gradientUnits="userSpaceOnUse">
<stop stop-color="#FFD8FF"/>
<stop offset="1" stop-color="#B7D3FF"/>
</linearGradient>
<linearGradient id="paint15_linear_4794_1370" x1="89.3401" y1="151.754" x2="92.8214" y2="184.735" gradientUnits="userSpaceOnUse">
<stop stop-color="#DD96E6"/>
<stop offset="1" stop-color="#316AD3"/>
</linearGradient>
<linearGradient id="paint16_linear_4794_1370" x1="83.021" y1="162.21" x2="84.1759" y2="175.41" gradientUnits="userSpaceOnUse">
<stop stop-color="#FFD8FF" stop-opacity="0"/>
<stop offset="1" stop-color="#FFD8FF"/>
</linearGradient>
<linearGradient id="paint17_linear_4794_1370" x1="77.1881" y1="132.722" x2="82.1443" y2="167.079" gradientUnits="userSpaceOnUse">
<stop stop-color="white"/>
<stop offset="1" stop-color="#F5C6FB"/>
</linearGradient>
<radialGradient id="paint18_radial_4794_1370" cx="0" cy="0" r="1" gradientUnits="userSpaceOnUse" gradientTransform="translate(81.9897 160.622) rotate(85) scale(2.32144 12.3758)">
<stop stop-color="#F695FF"/>
<stop offset="1" stop-color="#F695FF" stop-opacity="0"/>
</radialGradient>
<radialGradient id="paint19_radial_4794_1370" cx="0" cy="0" r="1" gradientUnits="userSpaceOnUse" gradientTransform="translate(81.634 156.536) rotate(85) scale(3.08525 12.2907)">
<stop stop-color="#F695FF"/>
<stop offset="1" stop-color="#F695FF" stop-opacity="0"/>
</radialGradient>
<radialGradient id="paint20_radial_4794_1370" cx="0" cy="0" r="1" gradientUnits="userSpaceOnUse" gradientTransform="translate(127.312 180.693) rotate(-143.46) scale(76.9091 65.7114)">
<stop stop-color="#0029BC"/>
<stop offset="0.82319" stop-color="#0029BC" stop-opacity="0"/>
</radialGradient>
<radialGradient id="paint21_radial_4794_1370" cx="0" cy="0" r="1" gradientUnits="userSpaceOnUse" gradientTransform="translate(139.825 179.889) rotate(-141.616) scale(116.003 88.9359)">
<stop stop-color="#7D91AF"/>
<stop offset="1" stop-color="white" stop-opacity="0"/>
</radialGradient>
<linearGradient id="paint22_linear_4794_1370" x1="139.417" y1="111.783" x2="139.417" y2="210.912" gradientUnits="userSpaceOnUse">
<stop stop-color="white"/>
<stop offset="1" stop-color="#F0F5FD"/>
</linearGradient>
<linearGradient id="paint23_linear_4794_1370" x1="123.004" y1="151.039" x2="119.809" y2="121.8" gradientUnits="userSpaceOnUse">
<stop stop-color="#FFD8FF"/>
<stop offset="1" stop-color="#C9DEFF"/>
</linearGradient>
<linearGradient id="paint24_linear_4794_1370" x1="101.962" y1="164.755" x2="101.576" y2="118.252" gradientUnits="userSpaceOnUse">
<stop stop-color="#FFD8FF"/>
<stop offset="1" stop-color="#B7D3FF"/>
</linearGradient>
<linearGradient id="paint25_linear_4794_1370" x1="147.776" y1="168.586" x2="148.419" y2="205.648" gradientUnits="userSpaceOnUse">
<stop stop-color="#DD96E6"/>
<stop offset="1" stop-color="#316AD3"/>
</linearGradient>
<linearGradient id="paint26_linear_4794_1370" x1="133.5" y1="143.91" x2="137.6" y2="172.33" gradientUnits="userSpaceOnUse">
<stop stop-color="white"/>
<stop offset="1" stop-color="#F5C6FB"/>
</linearGradient>
<radialGradient id="paint27_radial_4794_1370" cx="0" cy="0" r="1" gradientUnits="userSpaceOnUse" gradientTransform="translate(137.764 178.677) rotate(90) scale(3.02725 16.139)">
<stop stop-color="#F695FF"/>
<stop offset="1" stop-color="#F695FF" stop-opacity="0"/>
</radialGradient>
<radialGradient id="paint28_radial_4794_1370" cx="0" cy="0" r="1" gradientUnits="userSpaceOnUse" gradientTransform="translate(137.762 173.324) rotate(90) scale(4.02427 16.0305)">
<stop stop-color="#F695FF"/>
<stop offset="1" stop-color="#F695FF" stop-opacity="0"/>
</radialGradient>
<linearGradient id="paint29_linear_4794_1370" x1="211.965" y1="76.2832" x2="173.457" y2="54.9438" gradientUnits="userSpaceOnUse">
<stop stop-color="#3478FF"/>
<stop offset="1" stop-color="#F548F0"/>
</linearGradient>
<linearGradient id="paint30_linear_4794_1370" x1="117.076" y1="66.4082" x2="56.7458" y2="66.4082" gradientUnits="userSpaceOnUse">
<stop stop-color="#F0F5FD"/>
<stop offset="1" stop-color="white"/>
</linearGradient>
<linearGradient id="paint31_linear_4794_1370" x1="23.4257" y1="76.2832" x2="0.0535727" y2="69.8072" gradientUnits="userSpaceOnUse">
<stop stop-color="#3478FF"/>
<stop offset="1" stop-color="#F548F0"/>
</linearGradient>
<linearGradient id="paint32_linear_4794_1370" x1="23.4257" y1="112.283" x2="0.0535727" y2="105.807" gradientUnits="userSpaceOnUse">
<stop stop-color="#3478FF"/>
<stop offset="1" stop-color="#F548F0"/>
</linearGradient>
<clipPath id="clip0_4794_1370">
<rect width="73.6" height="96" fill="white" transform="translate(164.543 97.4473) rotate(5)"/>
</clipPath>
<clipPath id="clip1_4794_1370">
<rect width="73.6" height="96" fill="white" transform="translate(40.9766 103.861) rotate(-5)"/>
</clipPath>
<clipPath id="clip2_4794_1370">
<rect width="73.6" height="96" fill="white" transform="translate(102.617 111.783)"/>
</clipPath>
</defs>
</svg>
