<svg width="240" height="240" viewBox="0 0 240 240" fill="none" xmlns="http://www.w3.org/2000/svg">
<g clip-path="url(#clip0_4794_1273)">
<path d="M71.0822 99.4963L240.001 99.4922L231.652 194.918C229.791 216.185 211.984 232.503 190.635 232.504L59.4453 232.507L71.0822 99.4963Z" fill="#3478FF"/>
<path d="M71.0822 99.4963L240.001 99.4922L231.652 194.918C229.791 216.185 211.984 232.503 190.635 232.504L59.4453 232.507L71.0822 99.4963Z" fill="url(#paint0_radial_4794_1273)"/>
<path d="M17.6188 31.0292C18.4458 21.5764 26.3608 14.3239 35.8497 14.3242L106.254 14.3267L94.5759 147.807L7.40234 147.803L17.6188 31.0292Z" fill="#35FAFF"/>
<g clip-path="url(#clip1_4794_1273)">
<rect x="32" y="41.7266" width="122" height="136" rx="4" fill="url(#paint1_linear_4794_1273)"/>
<rect x="32" y="41.7266" width="122" height="136" rx="4" fill="url(#paint2_linear_4794_1273)" fill-opacity="0.3"/>
<rect x="38.8711" y="156.311" width="40" height="4" rx="2" fill="#ACB8CC"/>
<rect x="38.8711" y="166.059" width="24" height="4" rx="2" fill="#ACB8CC"/>
<rect x="70.8711" y="166.059" width="24" height="4" rx="2" fill="#ACB8CC"/>
<rect x="58.7891" y="54.7969" width="31.7851" height="6" rx="3" fill="#ACB8CC"/>
<rect x="113.27" y="155.266" width="33.7333" height="4" rx="1.67395" fill="#ACB8CC"/>
<g clip-path="url(#clip2_4794_1273)">
<rect x="38.8711" y="69.168" width="108.358" height="78.1834" rx="4" fill="url(#paint3_linear_4794_1273)"/>
<circle cx="80.3584" cy="92.8975" r="13.4678" fill="white"/>
<path d="M46.8779 124.965C56.3997 115.484 71.4855 114.562 82.0918 122.811L93.8789 131.979C106.392 141.712 121.727 147.097 137.558 147.34C137.514 147.343 137.471 147.347 137.428 147.35H42.665C40.5518 147.242 38.8712 145.495 38.8711 143.355V132.547C40.3973 131.285 41.8723 129.95 43.2871 128.541L46.8779 124.965Z" fill="#ACB8CC"/>
<path d="M126.209 104.91C135.978 104.91 142.066 108.492 147.227 113.574V143.353C147.226 145.511 145.516 147.269 143.377 147.348C106.06 147.348 65.2647 147.347 48.9932 147.348C48.9286 147.345 48.8645 147.341 48.8008 147.335C95.3275 146.56 92.8953 104.91 126.209 104.91Z" fill="#7D91AF"/>
</g>
<circle cx="44.6719" cy="57.7969" r="6" fill="#7D91AF"/>
<rect x="32" y="41.7266" width="122.099" height="145.211" rx="4" fill="url(#paint4_radial_4794_1273)"/>
</g>
<g clip-path="url(#clip3_4794_1273)">
<rect x="208" y="136.375" width="60" height="120" rx="4" transform="rotate(90 208 136.375)" fill="url(#paint5_linear_4794_1273)"/>
<circle cx="191.5" cy="152.125" r="6" transform="rotate(90 191.5 152.125)" fill="#E1E8F3"/>
<circle cx="162.5" cy="152.125" r="6" transform="rotate(90 162.5 152.125)" fill="#E1E8F3"/>
<circle cx="133.5" cy="152.125" r="6" transform="rotate(90 133.5 152.125)" fill="#E1E8F3"/>
<circle cx="104.5" cy="152.125" r="6" transform="rotate(90 104.5 152.125)" fill="#E1E8F3"/>
<path d="M179.5 176.967C179.5 171.168 184.201 166.375 190 166.375C195.799 166.375 200.5 171.168 200.5 176.967C200.5 182.766 195.799 187.559 190 187.559C184.201 187.559 179.5 182.766 179.5 176.967Z" fill="#0A66C2"/>
<path d="M183.896 169.747H196.098V169.746C196.671 169.739 197.151 170.208 197.158 170.787V183.147C197.151 183.726 196.672 184.197 196.098 184.189H183.896C183.323 184.196 182.847 183.725 182.84 183.147V170.788C182.847 170.21 183.324 169.741 183.896 169.747Z" fill="#0A66C2"/>
<path d="M192.999 182.127H195.121L195.122 178.346C195.122 176.49 194.725 175.063 192.575 175.063C191.754 175.032 190.98 175.461 190.566 176.176H190.537V175.235H188.5V182.127H190.622V178.717C190.622 177.818 190.791 176.947 191.896 176.947C192.985 176.947 192.999 177.976 192.999 178.775V182.127Z" fill="white"/>
<path d="M184.875 173.051C184.875 173.732 185.431 174.292 186.106 174.292C186.782 174.292 187.337 173.731 187.337 173.05C187.337 172.369 186.782 171.809 186.106 171.809C185.431 171.809 184.875 172.369 184.875 173.051Z" fill="white"/>
<path d="M185.043 182.127H187.167V175.235H185.043V182.127Z" fill="white"/>
<path d="M151.5 176.967C151.5 171.168 156.201 166.375 162 166.375C167.799 166.375 172.5 171.168 172.5 176.967C172.5 182.766 167.799 187.559 162 187.559C156.201 187.559 151.5 182.766 151.5 176.967Z" fill="black"/>
<path d="M165.643 172.096H167.447L163.486 176.606L168.114 182.725H164.482L161.639 179.006L158.383 182.725H156.579L160.776 177.9L156.344 172.096H160.066L162.635 175.492L165.643 172.096ZM165.012 181.666H166.012L159.54 173.115H158.466L165.012 181.666Z" fill="white"/>
<g clip-path="url(#clip4_4794_1273)">
<path d="M123.5 176.967C123.5 171.168 128.201 166.375 134 166.375C139.799 166.375 144.5 171.168 144.5 176.967C144.5 182.766 139.799 187.559 134 187.559C128.201 187.559 123.5 182.766 123.5 176.967Z" fill="white"/>
<g clip-path="url(#clip5_4794_1273)">
<path d="M144.5 176.967C144.5 171.117 139.799 166.375 134 166.375C128.201 166.375 123.5 171.117 123.5 176.967C123.5 182.253 127.34 186.635 132.359 187.43V180.028H129.693V176.967H132.359V174.633C132.359 171.979 133.927 170.512 136.325 170.512C137.474 170.512 138.676 170.719 138.676 170.719V173.326H137.352C136.048 173.326 135.641 174.142 135.641 174.981V176.967H138.553L138.087 180.028H135.641V187.43C140.66 186.635 144.5 182.253 144.5 176.967Z" fill="#1877F2"/>
<path d="M138.089 180.028L138.555 176.966H135.643V174.98C135.643 174.143 136.049 173.325 137.354 173.325H138.678V170.719C138.678 170.719 137.476 170.512 136.327 170.512C133.929 170.512 132.361 171.978 132.361 174.633V176.966H129.695V180.028H132.361V187.429C133.448 187.601 134.555 187.601 135.643 187.429V180.028H138.089Z" fill="white"/>
</g>
</g>
<path d="M95.5 176.967C95.5 171.168 100.201 166.375 106 166.375C111.799 166.375 116.5 171.168 116.5 176.967C116.5 182.766 111.799 187.559 106 187.559C100.201 187.559 95.5 182.766 95.5 176.967Z" fill="black"/>
<path d="M95.5 176.967C95.5 171.168 100.201 166.375 106 166.375C111.799 166.375 116.5 171.168 116.5 176.967C116.5 182.766 111.799 187.559 106 187.559C100.201 187.559 95.5 182.766 95.5 176.967Z" fill="url(#paint6_radial_4794_1273)"/>
<path d="M95.5 176.967C95.5 171.168 100.201 166.375 106 166.375C111.799 166.375 116.5 171.168 116.5 176.967C116.5 182.766 111.799 187.559 106 187.559C100.201 187.559 95.5 182.766 95.5 176.967Z" fill="url(#paint7_radial_4794_1273)"/>
<path d="M95.5 176.967C95.5 171.168 100.201 166.375 106 166.375C111.799 166.375 116.5 171.168 116.5 176.967C116.5 182.766 111.799 187.559 106 187.559C100.201 187.559 95.5 182.766 95.5 176.967Z" fill="url(#paint8_radial_4794_1273)"/>
<path d="M95.5 176.967C95.5 171.168 100.201 166.375 106 166.375C111.799 166.375 116.5 171.168 116.5 176.967C116.5 182.766 111.799 187.559 106 187.559C100.201 187.559 95.5 182.766 95.5 176.967Z" fill="url(#paint9_radial_4794_1273)"/>
<path d="M95.5 176.967C95.5 171.168 100.201 166.375 106 166.375C111.799 166.375 116.5 171.168 116.5 176.967C116.5 182.766 111.799 187.559 106 187.559C100.201 187.559 95.5 182.766 95.5 176.967Z" fill="url(#paint10_radial_4794_1273)"/>
<path d="M95.5 176.967C95.5 171.168 100.201 166.375 106 166.375C111.799 166.375 116.5 171.168 116.5 176.967C116.5 182.766 111.799 187.559 106 187.559C100.201 187.559 95.5 182.766 95.5 176.967Z" fill="url(#paint11_radial_4794_1273)"/>
<path d="M95.5 176.967C95.5 171.168 100.201 166.375 106 166.375C111.799 166.375 116.5 171.168 116.5 176.967C116.5 182.766 111.799 187.559 106 187.559C100.201 187.559 95.5 182.766 95.5 176.967Z" fill="url(#paint12_radial_4794_1273)"/>
<path d="M95.5 176.967C95.5 171.168 100.201 166.375 106 166.375C111.799 166.375 116.5 171.168 116.5 176.967C116.5 182.766 111.799 187.559 106 187.559C100.201 187.559 95.5 182.766 95.5 176.967Z" fill="url(#paint13_radial_4794_1273)"/>
<path d="M95.5 176.967C95.5 171.168 100.201 166.375 106 166.375C111.799 166.375 116.5 171.168 116.5 176.967C116.5 182.766 111.799 187.559 106 187.559C100.201 187.559 95.5 182.766 95.5 176.967Z" fill="url(#paint14_radial_4794_1273)"/>
<path d="M95.5 176.967C95.5 171.168 100.201 166.375 106 166.375C111.799 166.375 116.5 171.168 116.5 176.967C116.5 182.766 111.799 187.559 106 187.559C100.201 187.559 95.5 182.766 95.5 176.967Z" fill="url(#paint15_radial_4794_1273)"/>
<g clip-path="url(#clip6_4794_1273)">
<path d="M106.006 173.272C105.879 173.272 105.754 173.278 105.63 173.291C105.506 173.304 105.384 173.323 105.264 173.348C105.144 173.373 105.026 173.404 104.911 173.44L104.572 173.566L104.25 173.723L103.945 173.91L103.661 174.125L103.398 174.366L103.16 174.631L102.947 174.919L102.761 175.226L102.605 175.552C102.558 175.663 102.517 175.777 102.481 175.894C102.445 176.01 102.414 176.129 102.389 176.25C102.365 176.371 102.346 176.494 102.333 176.619C102.32 176.744 102.314 176.871 102.314 176.999C102.314 177.127 102.32 177.254 102.333 177.379C102.346 177.503 102.364 177.626 102.389 177.748C102.414 177.87 102.445 177.988 102.481 178.105C102.517 178.222 102.558 178.336 102.605 178.447L102.761 178.773L102.947 179.08L103.16 179.367L103.398 179.632L103.661 179.873L103.945 180.088L104.25 180.275L104.572 180.433L104.911 180.559L105.264 180.651C105.385 180.676 105.507 180.695 105.63 180.707C105.755 180.72 105.88 180.727 106.006 180.727C106.133 180.727 106.259 180.72 106.382 180.707C106.505 180.695 106.627 180.676 106.748 180.651L107.101 180.559L107.44 180.433L107.763 180.275L108.067 180.088L108.351 179.873L108.614 179.632L108.853 179.367L109.066 179.08L109.251 178.773L109.407 178.447L109.532 178.105C109.568 177.988 109.598 177.869 109.623 177.748L109.679 177.379C109.692 177.254 109.698 177.127 109.698 176.999C109.698 176.871 109.692 176.744 109.679 176.619C109.666 176.495 109.648 176.372 109.623 176.25C109.598 176.129 109.568 176.01 109.532 175.894L109.407 175.551L109.251 175.226L109.066 174.918L108.853 174.631L108.614 174.366L108.351 174.125L108.067 173.91L107.763 173.723L107.44 173.566L107.101 173.44L106.748 173.348L106.382 173.291C106.257 173.278 106.132 173.272 106.006 173.272ZM106.006 174.558C106.09 174.558 106.173 174.563 106.254 174.571L106.495 174.608L106.727 174.668L106.95 174.749L107.161 174.852L107.36 174.973L107.546 175.113L107.717 175.271L107.873 175.444L108.012 175.631L108.132 175.833L108.234 176.046C108.264 176.119 108.291 176.194 108.315 176.271C108.338 176.347 108.358 176.426 108.374 176.505C108.39 176.585 108.402 176.666 108.41 176.749L108.423 177C108.423 177.084 108.419 177.168 108.41 177.25C108.402 177.333 108.39 177.414 108.374 177.494C108.358 177.573 108.338 177.652 108.315 177.728L108.234 177.953L108.132 178.167L108.012 178.368L107.873 178.555L107.717 178.729L107.546 178.886L107.36 179.026L107.161 179.148L106.95 179.25L106.727 179.332L106.495 179.391L106.254 179.428C106.172 179.436 106.089 179.441 106.006 179.441C105.923 179.441 105.84 179.436 105.758 179.428L105.517 179.391C105.438 179.375 105.361 179.355 105.285 179.332L105.062 179.25L104.851 179.148L104.652 179.026L104.466 178.886L104.294 178.729L104.139 178.555L104 178.368L103.879 178.167L103.778 177.953L103.697 177.728L103.638 177.494L103.602 177.25C103.593 177.167 103.589 177.083 103.589 177C103.589 176.916 103.593 176.832 103.602 176.749C103.61 176.666 103.622 176.585 103.638 176.505C103.654 176.426 103.674 176.348 103.697 176.271L103.778 176.046L103.88 175.833L104 175.631L104.139 175.444L104.295 175.271L104.466 175.113L104.652 174.973L104.851 174.852L105.062 174.749C105.135 174.718 105.209 174.691 105.285 174.668L105.517 174.608C105.596 174.592 105.676 174.579 105.758 174.571C105.84 174.563 105.923 174.558 106.006 174.558Z" fill="white"/>
<path d="M109.848 172.212C109.819 172.212 109.789 172.213 109.76 172.216C109.731 172.219 109.702 172.223 109.673 172.229C109.645 172.235 109.616 172.243 109.588 172.251C109.56 172.26 109.533 172.271 109.505 172.282C109.478 172.294 109.452 172.307 109.426 172.321C109.401 172.335 109.376 172.351 109.351 172.368C109.327 172.385 109.304 172.403 109.281 172.422C109.259 172.441 109.238 172.461 109.217 172.483C109.197 172.504 109.177 172.527 109.159 172.55C109.141 172.573 109.124 172.598 109.108 172.623C109.092 172.648 109.078 172.674 109.064 172.7C109.051 172.727 109.039 172.754 109.028 172.782C109.018 172.81 109.009 172.838 109.001 172.867C108.993 172.895 108.986 172.924 108.982 172.954C108.976 172.983 108.973 173.013 108.971 173.043C108.969 173.064 108.969 173.085 108.969 173.106C108.969 173.136 108.97 173.165 108.973 173.195C108.976 173.225 108.98 173.254 108.986 173.284C108.992 173.313 108.999 173.342 109.008 173.37C109.017 173.399 109.027 173.427 109.038 173.454C109.049 173.482 109.062 173.508 109.076 173.535C109.09 173.561 109.106 173.586 109.122 173.611C109.139 173.636 109.157 173.659 109.175 173.682C109.194 173.705 109.214 173.727 109.235 173.747C109.256 173.768 109.278 173.788 109.301 173.806C109.324 173.825 109.348 173.842 109.373 173.858C109.398 173.875 109.423 173.889 109.449 173.903C109.475 173.917 109.502 173.929 109.529 173.94C109.557 173.95 109.584 173.96 109.613 173.968C109.641 173.976 109.67 173.982 109.698 173.987C109.727 173.992 109.757 173.996 109.786 173.998C109.806 174 109.827 174 109.848 174C109.877 174 109.907 173.999 109.936 173.996C109.965 173.993 109.994 173.988 110.023 173.982C110.051 173.977 110.08 173.969 110.108 173.96C110.136 173.952 110.163 173.941 110.19 173.93C110.217 173.918 110.244 173.905 110.269 173.891C110.295 173.877 110.32 173.861 110.344 173.844C110.369 173.827 110.392 173.809 110.414 173.79C110.437 173.771 110.458 173.75 110.479 173.729C110.499 173.708 110.518 173.685 110.537 173.662C110.555 173.639 110.572 173.614 110.588 173.589C110.604 173.564 110.618 173.538 110.631 173.512C110.645 173.485 110.657 173.458 110.667 173.43C110.678 173.402 110.687 173.374 110.695 173.345C110.703 173.316 110.709 173.287 110.714 173.258C110.719 173.229 110.723 173.199 110.725 173.169C110.726 173.148 110.727 173.127 110.727 173.106C110.727 173.076 110.726 173.046 110.723 173.017C110.72 172.987 110.715 172.958 110.71 172.928C110.704 172.899 110.697 172.87 110.688 172.842C110.679 172.813 110.669 172.785 110.658 172.758C110.646 172.73 110.634 172.703 110.62 172.677C110.605 172.651 110.59 172.626 110.574 172.601C110.557 172.576 110.539 172.553 110.52 172.53C110.501 172.507 110.481 172.485 110.461 172.464C110.439 172.444 110.417 172.424 110.394 172.405C110.371 172.387 110.348 172.369 110.323 172.353C110.298 172.337 110.273 172.322 110.247 172.309C110.221 172.295 110.194 172.283 110.166 172.272C110.139 172.262 110.111 172.252 110.083 172.244C110.055 172.236 110.026 172.23 109.997 172.225C109.968 172.219 109.939 172.216 109.91 172.214C109.889 172.212 109.869 172.212 109.848 172.212Z" fill="white"/>
<path d="M105.306 169.707C104.904 169.707 104.546 169.708 104.224 169.713L103.361 169.736C103.105 169.747 102.88 169.762 102.677 169.781C102.575 169.79 102.48 169.801 102.389 169.813C102.303 169.824 102.217 169.836 102.131 169.851C102.049 169.865 101.972 169.88 101.898 169.897C101.823 169.913 101.752 169.931 101.684 169.95C101.617 169.968 101.551 169.989 101.485 170.011C101.42 170.033 101.357 170.057 101.295 170.081C101.171 170.131 101.05 170.187 100.925 170.25C100.829 170.298 100.74 170.346 100.656 170.398C100.572 170.45 100.492 170.504 100.414 170.563C100.333 170.625 100.256 170.69 100.181 170.759C100.104 170.831 100.024 170.909 99.9416 170.997C99.8379 171.107 99.7477 171.21 99.6677 171.31C99.6277 171.361 99.5902 171.411 99.5549 171.461C99.52 171.51 99.4867 171.56 99.4549 171.612C99.4234 171.663 99.3937 171.714 99.3652 171.768C99.3362 171.822 99.3089 171.877 99.2832 171.933C99.2305 172.047 99.1814 172.17 99.1324 172.308C99.096 172.409 99.0634 172.512 99.0348 172.616C99.0055 172.722 98.9794 172.834 98.9562 172.954C98.933 173.074 98.9127 173.203 98.8949 173.346C98.8757 173.503 98.8604 173.661 98.849 173.818C98.836 173.991 98.8253 174.182 98.8165 174.394L98.7957 175.099L98.7845 175.959L98.7812 176.999L98.7907 178.51L98.8203 179.655L98.8431 180.103L98.8716 180.473C98.8808 180.573 98.8922 180.673 98.9059 180.772C98.9184 180.86 98.9318 180.938 98.9462 181.004C98.9755 181.14 99.0101 181.275 99.05 181.408C99.0882 181.536 99.1319 181.661 99.1809 181.785C99.2291 181.906 99.2818 182.023 99.3392 182.135C99.3965 182.247 99.4585 182.355 99.5251 182.459C99.5917 182.563 99.6629 182.662 99.739 182.757C99.8149 182.853 99.8957 182.944 99.981 183.031C100.066 183.118 100.157 183.2 100.251 183.279C100.348 183.358 100.447 183.433 100.551 183.503C100.647 183.568 100.741 183.627 100.837 183.681C100.933 183.736 101.029 183.785 101.128 183.83C101.227 183.875 101.329 183.915 101.435 183.952C101.541 183.988 101.651 184.021 101.768 184.049C101.885 184.078 102.009 184.103 102.14 184.125C102.271 184.147 102.41 184.166 102.56 184.182C102.709 184.198 102.869 184.212 103.04 184.223C103.212 184.234 103.395 184.243 103.592 184.25C103.896 184.261 104.356 184.268 104.886 184.27L106.604 184.267L108.231 184.244L108.85 184.226L109.253 184.205C109.339 184.198 109.424 184.19 109.506 184.18C109.587 184.17 109.668 184.159 109.746 184.146C109.825 184.133 109.901 184.119 109.977 184.103C110.051 184.087 110.125 184.07 110.199 184.051C110.272 184.032 110.344 184.011 110.415 183.988C110.486 183.965 110.556 183.941 110.626 183.915C110.697 183.888 110.767 183.86 110.836 183.831C110.905 183.801 110.974 183.769 111.044 183.735C111.151 183.683 111.237 183.639 111.313 183.597C111.384 183.558 111.452 183.514 111.518 183.465C111.583 183.417 111.647 183.362 111.721 183.293C111.795 183.224 111.879 183.141 111.982 183.036C112.074 182.944 112.151 182.864 112.217 182.791C112.283 182.718 112.339 182.653 112.388 182.59C112.435 182.53 112.479 182.467 112.519 182.403C112.558 182.34 112.594 182.274 112.631 182.201C112.686 182.092 112.735 181.991 112.779 181.893C112.822 181.799 112.861 181.703 112.896 181.606C112.931 181.509 112.961 181.411 112.987 181.311C113.013 181.209 113.035 181.101 113.055 180.982C113.074 180.864 113.091 180.735 113.105 180.591C113.119 180.447 113.131 180.288 113.142 180.109L113.17 179.508L113.194 178.761L113.212 177.929L113.218 177.06L113.203 175.351L113.182 174.586L113.154 173.929L113.119 173.416C113.106 173.274 113.092 173.161 113.078 173.086C113.061 173.002 113.043 172.918 113.023 172.835C113.004 172.754 112.983 172.674 112.959 172.594C112.937 172.517 112.912 172.44 112.885 172.363C112.859 172.288 112.831 172.214 112.802 172.141C112.773 172.069 112.742 171.999 112.709 171.929C112.676 171.86 112.641 171.793 112.605 171.727C112.569 171.661 112.532 171.597 112.492 171.534C112.453 171.471 112.412 171.41 112.369 171.351C112.327 171.292 112.282 171.234 112.236 171.177C112.191 171.121 112.143 171.066 112.094 171.013C112.045 170.96 111.994 170.909 111.942 170.859C111.889 170.809 111.835 170.761 111.78 170.714C111.724 170.667 111.666 170.622 111.608 170.579C111.548 170.536 111.488 170.494 111.426 170.454C111.363 170.413 111.299 170.375 111.235 170.338C111.169 170.301 111.101 170.265 111.033 170.232C110.92 170.177 110.816 170.127 110.713 170.084C110.613 170.04 110.51 170.002 110.405 169.968C110.301 169.935 110.191 169.906 110.071 169.882C109.951 169.857 109.82 169.836 109.671 169.819C109.523 169.801 109.357 169.787 109.167 169.775C108.978 169.763 108.765 169.754 108.521 169.747L107.694 169.728L106.647 169.716L105.306 169.707L105.306 169.707ZM106.002 170.993L107.936 171.004L108.665 171.018C108.866 171.024 109.019 171.03 109.109 171.038C109.226 171.048 109.338 171.06 109.444 171.075C109.546 171.09 109.648 171.107 109.749 171.129C109.847 171.149 109.939 171.173 110.028 171.199C110.117 171.225 110.201 171.255 110.282 171.288C110.364 171.32 110.441 171.356 110.516 171.396C110.59 171.435 110.663 171.478 110.732 171.524C110.802 171.571 110.868 171.621 110.933 171.675C110.998 171.729 111.061 171.787 111.123 171.849C111.188 171.914 111.248 171.98 111.303 172.049C111.358 172.117 111.409 172.189 111.455 172.263C111.502 172.338 111.544 172.417 111.582 172.497C111.62 172.58 111.655 172.667 111.685 172.759C111.716 172.851 111.744 172.95 111.768 173.055C111.794 173.166 111.815 173.278 111.832 173.391C111.851 173.511 111.867 173.638 111.88 173.775C111.893 173.911 111.905 174.057 111.914 174.213C111.921 174.338 111.927 174.503 111.933 174.698L111.946 175.362L111.957 176.99L111.945 178.616L111.931 179.278L111.911 179.76C111.898 179.986 111.884 180.175 111.867 180.34C111.858 180.423 111.849 180.499 111.838 180.571C111.829 180.639 111.817 180.706 111.804 180.773C111.792 180.834 111.778 180.895 111.762 180.956C111.747 181.013 111.73 181.07 111.711 181.126C111.692 181.183 111.671 181.239 111.649 181.294C111.625 181.353 111.6 181.411 111.574 181.468C111.55 181.519 111.525 181.569 111.499 181.618C111.474 181.666 111.446 181.713 111.417 181.759C111.389 181.804 111.359 181.849 111.327 181.892C111.296 181.935 111.263 181.976 111.229 182.017C111.195 182.057 111.159 182.096 111.122 182.134C111.085 182.171 111.047 182.207 111.007 182.242C110.967 182.278 110.926 182.311 110.883 182.344C110.841 182.376 110.796 182.407 110.751 182.437C110.705 182.467 110.658 182.495 110.609 182.523C110.561 182.55 110.511 182.576 110.459 182.601C110.406 182.626 110.353 182.65 110.299 182.672C110.244 182.694 110.188 182.716 110.131 182.735C110.015 182.775 109.893 182.81 109.765 182.84C109.631 182.871 109.496 182.897 109.36 182.917C109.308 182.924 109.187 182.932 109.015 182.938L108.36 182.957L106.501 182.981L104.555 182.984L103.791 182.976L103.295 182.96L102.929 182.934C102.816 182.925 102.71 182.914 102.611 182.902C102.512 182.889 102.42 182.876 102.333 182.861C102.251 182.846 102.169 182.829 102.088 182.809C102.014 182.791 101.941 182.77 101.869 182.746C101.799 182.722 101.733 182.697 101.668 182.668C101.603 182.64 101.54 182.609 101.478 182.575C101.416 182.541 101.354 182.505 101.292 182.465C101.245 182.434 101.199 182.404 101.156 182.371C101.112 182.339 101.07 182.307 101.029 182.273C100.988 182.239 100.949 182.204 100.911 182.168C100.874 182.133 100.838 182.095 100.803 182.057C100.768 182.019 100.735 181.98 100.703 181.939C100.671 181.898 100.641 181.856 100.612 181.813C100.583 181.769 100.555 181.724 100.529 181.678C100.503 181.632 100.478 181.584 100.454 181.534C100.43 181.484 100.407 181.433 100.386 181.381C100.365 181.329 100.345 181.274 100.326 181.218C100.288 181.106 100.254 180.986 100.225 180.858C100.196 180.731 100.172 180.595 100.151 180.451C100.13 180.306 100.113 180.153 100.1 179.99C100.09 179.871 100.082 179.684 100.076 179.448L100.063 178.61L100.068 176.475L100.104 174.434L100.132 173.715L100.148 173.477C100.153 173.414 100.159 173.367 100.165 173.338C100.184 173.245 100.203 173.159 100.223 173.078C100.241 173.002 100.262 172.926 100.285 172.851C100.306 172.78 100.329 172.713 100.353 172.65C100.377 172.589 100.403 172.53 100.431 172.471C100.459 172.414 100.49 172.359 100.522 172.306C100.555 172.253 100.59 172.202 100.629 172.15C100.667 172.099 100.709 172.048 100.754 171.997C100.799 171.946 100.848 171.894 100.9 171.84C100.962 171.778 101.026 171.718 101.092 171.661C101.155 171.607 101.221 171.556 101.289 171.509C101.355 171.462 101.424 171.421 101.495 171.382C101.566 171.344 101.64 171.31 101.718 171.278C101.796 171.247 101.878 171.22 101.965 171.194C102.056 171.168 102.148 171.146 102.241 171.128C102.339 171.109 102.442 171.092 102.553 171.077C102.664 171.063 102.782 171.05 102.908 171.039C102.996 171.031 103.147 171.024 103.346 171.019L104.072 171.004L106.003 170.992L106.002 170.993Z" fill="white"/>
</g>
<path d="M191.735 155.076L186.785 150.126L188.202 148.709L191.735 152.242L198.802 145.176L200.218 146.592L191.735 155.076Z" fill="#3478FF"/>
<path d="M162.735 155.076L157.785 150.126L159.202 148.709L162.735 152.242L169.802 145.176L171.218 146.592L162.735 155.076Z" fill="#3478FF"/>
<path d="M133.735 155.076L128.785 150.126L130.202 148.709L133.735 152.242L140.802 145.176L142.218 146.592L133.735 155.076Z" fill="#3478FF"/>
<path d="M104.735 155.076L99.7852 150.126L101.202 148.709L104.735 152.242L111.802 145.176L113.218 146.592L104.735 155.076Z" fill="#3478FF"/>
</g>
</g>
<defs>
<radialGradient id="paint0_radial_4794_1273" cx="0" cy="0" r="1" gradientTransform="matrix(406.676 -193.128 806.174 112.926 59.4453 232.507)" gradientUnits="userSpaceOnUse">
<stop stop-color="#00BDFF"/>
<stop offset="1" stop-color="#35FAFF"/>
</radialGradient>
<linearGradient id="paint1_linear_4794_1273" x1="88.7237" y1="124.898" x2="158.405" y2="6.2534" gradientUnits="userSpaceOnUse">
<stop stop-color="white"/>
<stop offset="1" stop-color="#F0F5FD"/>
</linearGradient>
<linearGradient id="paint2_linear_4794_1273" x1="79.435" y1="125.314" x2="3.99486" y2="193.22" gradientUnits="userSpaceOnUse">
<stop stop-color="white" stop-opacity="0"/>
<stop offset="1" stop-color="#ACB8CC"/>
</linearGradient>
<linearGradient id="paint3_linear_4794_1273" x1="51.6298" y1="52.567" x2="59.2757" y2="138.855" gradientUnits="userSpaceOnUse">
<stop stop-color="#ACB8CC"/>
<stop offset="1" stop-color="#F0F5FD"/>
</linearGradient>
<radialGradient id="paint4_radial_4794_1273" cx="0" cy="0" r="1" gradientTransform="matrix(-129.23 -33.0359 16.9684 -85.8984 144.084 175.17)" gradientUnits="userSpaceOnUse">
<stop stop-color="#7D91AF"/>
<stop offset="1" stop-color="white" stop-opacity="0"/>
</radialGradient>
<linearGradient id="paint5_linear_4794_1273" x1="229.657" y1="205.734" x2="254.399" y2="275.841" gradientUnits="userSpaceOnUse">
<stop stop-color="white"/>
<stop offset="1" stop-color="#F0F5FD"/>
</linearGradient>
<radialGradient id="paint6_radial_4794_1273" cx="0" cy="0" r="1" gradientTransform="matrix(6.96561 10.2972 -10.2079 7.02651 100.642 170.497)" gradientUnits="userSpaceOnUse">
<stop stop-color="#5D21F5"/>
<stop offset="0.599877" stop-color="#4C0FE0"/>
<stop offset="1" stop-color="#4C0FE0" stop-opacity="0"/>
</radialGradient>
<radialGradient id="paint7_radial_4794_1273" cx="0" cy="0" r="1" gradientTransform="matrix(-10.6519 12.3303 -9.98646 -8.77857 114.34 170.624)" gradientUnits="userSpaceOnUse">
<stop offset="0.412674" stop-color="#EA34B4"/>
<stop offset="1" stop-color="#EA34B4" stop-opacity="0"/>
</radialGradient>
<radialGradient id="paint8_radial_4794_1273" cx="0" cy="0" r="1" gradientTransform="matrix(-8.3986 -1.20787 1.32987 -9.40927 106 175.883)" gradientUnits="userSpaceOnUse">
<stop offset="0.572505" stop-color="#EA34B4"/>
<stop offset="1" stop-color="#EA34B4" stop-opacity="0"/>
</radialGradient>
<radialGradient id="paint9_radial_4794_1273" cx="0" cy="0" r="1" gradientTransform="matrix(3.69198 -7.3227 11.1695 5.73039 96.7532 177.293)" gradientUnits="userSpaceOnUse">
<stop offset="0.374931" stop-color="#EA34B4"/>
<stop offset="1" stop-color="#EA34B4" stop-opacity="0"/>
</radialGradient>
<radialGradient id="paint10_radial_4794_1273" cx="0" cy="0" r="1" gradientTransform="matrix(-7.70825 -6.79425 9.1443 -10.5566 109.925 181.797)" gradientUnits="userSpaceOnUse">
<stop offset="0.53895" stop-color="#EA3D52"/>
<stop offset="1" stop-color="#EA3D52" stop-opacity="0"/>
</radialGradient>
<radialGradient id="paint11_radial_4794_1273" cx="0" cy="0" r="1" gradientTransform="matrix(2.22018 -10.2669 12.9638 2.85262 100.221 184.464)" gradientUnits="userSpaceOnUse">
<stop offset="0.607797" stop-color="#EA3D52"/>
<stop offset="1" stop-color="#EA3D52" stop-opacity="0"/>
</radialGradient>
<radialGradient id="paint12_radial_4794_1273" cx="0" cy="0" r="1" gradientTransform="matrix(-8.10739 -1.35885 2.07269 -12.5836 118.706 183.458)" gradientUnits="userSpaceOnUse">
<stop offset="0.379193" stop-color="#EA34B4"/>
<stop offset="1" stop-color="#EA34B4" stop-opacity="0"/>
</radialGradient>
<radialGradient id="paint13_radial_4794_1273" cx="0" cy="0" r="1" gradientTransform="matrix(2.31996 -8.48024 10.9367 3.04452 100.844 184.968)" gradientUnits="userSpaceOnUse">
<stop stop-color="#F8D548"/>
<stop offset="1" stop-color="#F8D548" stop-opacity="0"/>
</radialGradient>
<radialGradient id="paint14_radial_4794_1273" cx="0" cy="0" r="1" gradientTransform="matrix(1.75617 -6.46341 8.33564 2.30465 101.408 183.58)" gradientUnits="userSpaceOnUse">
<stop stop-color="#F8D548"/>
<stop offset="1" stop-color="#F8D548" stop-opacity="0"/>
</radialGradient>
<radialGradient id="paint15_radial_4794_1273" cx="0" cy="0" r="1" gradientTransform="matrix(2.64425 -5.38508 4.75472 2.37573 103.015 184.867)" gradientUnits="userSpaceOnUse">
<stop offset="0.270895" stop-color="#F8D548"/>
<stop offset="0.934526" stop-color="#F8D548" stop-opacity="0"/>
</radialGradient>
<clipPath id="clip0_4794_1273">
<rect width="240" height="240" fill="white"/>
</clipPath>
<clipPath id="clip1_4794_1273">
<rect x="32" y="42" width="122" height="136" rx="4" fill="white"/>
</clipPath>
<clipPath id="clip2_4794_1273">
<rect width="108.358" height="78.1834" fill="white" transform="translate(38.8711 69.168)"/>
</clipPath>
<clipPath id="clip3_4794_1273">
<rect x="208" y="136" width="60" height="120" rx="4" transform="rotate(90 208 136)" fill="white"/>
</clipPath>
<clipPath id="clip4_4794_1273">
<path d="M123.5 176.967C123.5 171.168 128.201 166.375 134 166.375C139.799 166.375 144.5 171.168 144.5 176.967C144.5 182.766 139.799 187.559 134 187.559C128.201 187.559 123.5 182.766 123.5 176.967Z" fill="white"/>
</clipPath>
<clipPath id="clip5_4794_1273">
<rect width="21" height="21.1836" fill="white" transform="translate(123.5 166.375)"/>
</clipPath>
<clipPath id="clip6_4794_1273">
<rect width="14.4376" height="14.5634" fill="white" transform="translate(98.7812 169.686)"/>
</clipPath>
</defs>
</svg>
